<?xml version="1.0" encoding="utf-8"?>
<!-- Generator: Adobe Illustrator 16.0.0, SVG Export Plug-In . SVG Version: 6.00 Build 0)  -->
<!DOCTYPE svg PUBLIC "-//W3C//DTD SVG 1.1//EN" "http://www.w3.org/Graphics/SVG/1.1/DTD/svg11.dtd">
<svg version="1.1" id="Layer_1" xmlns="http://www.w3.org/2000/svg" xmlns:xlink="http://www.w3.org/1999/xlink" x="0px" y="0px"
	 width="2286.8px" height="400px" viewBox="0 0 2286.8 400" enable-background="new 0 0 2286.8 400" xml:space="preserve">
<g>
	<circle cx="200" cy="200" r="200"/>
	<g>
		<path fill="none" stroke="#FFFFFF" stroke-width="4" stroke-miterlimit="10" d="M174.4,28.9c-15.3,7.8-63.9,26.9-73,31.9
			C91.8,66,85.9,73.2,86.6,86c0.7,12.9,4.3,18.3,8.4,33.2c4.1,14.9,2.7,17.4,6.4,36.8c3.7,19.4,12.7,54.4,15.7,68.6
			c2.9,14.2-1.1,44.9-1.1,44.9c-1.1,7.2-5.6,20.5-5.9,26.2c-0.2,5.6-4.7,20.1-6.8,23.7c-0.3,0.5-0.6,0.9-1.1,1.4
			c-3.2,3.5-10.9,8.5-14.4,11.1c-4.1,2.9-2.3,8.7-2.3,8.7l0.7,1.7c0,0,32.2-10.3,40.7-11.9c8.6-1.6,15.3-15.1,18-22.8
			c2.8-7.7,10.9-13.5,15.7-16.9c4.7-3.4,7.2,0,7.9,5.6c0.7,5.6,3.1,21,2,23.7l7.1-1.6v-1.1c0,0-6.1-11.3-4.3-23.5
			c1.8-12.2,4.6-19.9-0.4-25.7s-15-12.5-16.4-13.2l-3.3-3.8c-4.1-6.3-2.4-14.7-3.5-27.1c-0.9-9.7,1.7-68.7,1.7-68.7
			s-1.3-2.8-1.6-3.9c-0.2-0.9-0.3-2.7-0.3-3.6c0-0.9,0-2.7,0-3.6c0-0.7,0.1-2.1,0.2-2.8c0.1-0.7,0.3-2.1,0.4-2.8
			c0.1-0.7,0.4-1.9,0.6-2.6c0.2-0.7,0.9-2.1,0.9-2.8c0-0.3-0.1-0.7-0.2-1C149.6,121,145,107,145,107c10.5-10.8,54.2-11.1,76.3-14.9
			c22.1-3.8,49.6-4.7,70.2-12.2c15-5.4,19.9-11.6,23-18"/>
		<path fill="none" stroke="#FFFFFF" stroke-width="4" stroke-miterlimit="10" d="M303,76.1c0,0,1.4,5.9-7.9,14.7
			c-9.3,8.8-30,33.4-60,46c-30,12.6-17.8,6.8-27.4,16.1c0,0,16.4,14.7,30.2,33.7c13.8,19,8.7,26.2,20.8,48.7
			c12,22.6,18.7,30.1,23.5,32.8c4.8,2.7,16.5,9.1,16.6,15c0.1,5.9-4.3,14.3-11.1,22.9c-6.8,8.6-1.5,21.2-1.1,27.4
			c0.3,6.2-5.2,11.4-5.6,11.8"/>
		<path fill="none" stroke="#FFFFFF" stroke-width="3" stroke-miterlimit="10" d="M102.2,320.8c0,0,10.3-0.5,10.1,13.8"/>
		<path fill="none" stroke="#FFFFFF" stroke-width="3" stroke-miterlimit="10" d="M170,264.6c0,0-6.9,8.9-13.2,13.7
			c-6.3,4.7-20.6,20.2-22.7,22.9c-2,2.7-6.5,12.1-20,14.8c-13.4,2.7-10.3,2.2-10.3,2.2"/>
		<path fill="none" stroke="#FFFFFF" stroke-width="4" stroke-miterlimit="10" d="M296.3,278.2c0,0,8,2.5,7.5,12
			c-0.5,9.5,1.9,16.5,4.9,20.3c2.9,3.8,6.2,7.3,6.2,7.3l-5,5c0,0-10.8-17.9-10.5-21.6c0,0-9,7.8-9.1,30.2c-0.1,22.5,0.8,15.6-5,21.7
			c-5.8,6.1-20.3,16-20.9,16.2c-0.6,0.2-5.6,3.2-9,0.9c-3.5-2.3-4.7-4.4-2.6-8.7s4.3-4.6,4.7-13.1c0.5-8.5,4.3-11.2,5.2-11.5
			c0,0-1.9-30.9-3.4-36.9c-1.5-6,1.5-11.2-10.7-26.1c-12.2-14.9-33.4-39.5-43.3-46.9c-9.9-7.4-40.7-52.8-42.2-55.7
			c-1.5-2.9-13.2-14.7-13.4-21.2c-0.2-6.5-1-14.2,6.8-26c7.8-11.7,16.3-24.5,17.2-25.6"/>
		<path fill="none" stroke="#FFFFFF" stroke-width="3" stroke-miterlimit="10" d="M262.4,338.6c0,0,2.6,10.8,26.3,6.8"/>
		<path fill="none" stroke="#FFFFFF" stroke-width="10" stroke-miterlimit="10" d="M257.5,288.7c0,0,19.1-4.5,28.1-18.5"/>
		<path fill="none" stroke="#FFFFFF" stroke-width="8" stroke-miterlimit="10" d="M154.7,252.6c0,0-13.1,9.5-38,10.7"/>
		<path fill="none" stroke="#FFFFFF" stroke-width="3" stroke-miterlimit="10" d="M113.1,316.2c0,0,52.6-51.5,50.9-56.5"/>
		<path fill="none" stroke="#FFFFFF" stroke-width="3" stroke-miterlimit="10" d="M105.7,313.6c0,0,16.5-23.1,28.4-34.4
			c12-11.3,19.9-24.4,20.5-25.4"/>
		<path fill="none" stroke="#FFFFFF" stroke-width="3" stroke-miterlimit="10" d="M149.8,224.2c0,0-3.6,19.9-19.6,42
			c-16,22.1-19.6,25.9-20.1,29.6"/>
		<path fill="none" stroke="#FFFFFF" stroke-width="3" stroke-miterlimit="10" d="M114.5,276.3c1.4-5.3,11.4-21.7,18.4-37
			c7-15.3,16.9-41.8,16.9-41.8"/>
		<path fill="none" stroke="#FFFFFF" stroke-width="3" stroke-miterlimit="10" d="M150.7,171.4c0,0-6.5,10.1-18.6,39.4
			c-12.1,29.2-13.1,35.2-14.4,40"/>
		<path fill="none" stroke="#FFFFFF" stroke-width="3" stroke-miterlimit="10" d="M149.6,148.6c0,0-9.2,12.4-19.4,33.4
			c-10.2,21-12.9,36.3-13.1,42.7"/>
		<path fill="none" stroke="#FFFFFF" stroke-width="3" stroke-miterlimit="10" d="M149.6,123.2c0,0-14.4,15.7-25,34.6
			c-10.6,19-12.1,37.9-12.4,45.5"/>
		<path fill="none" stroke="#FFFFFF" stroke-width="3" stroke-miterlimit="10" d="M99.8,146.6c3.4-14.2,9-45.9,37.6-51.3
			s35.9,2.4,35.9,2.4"/>
		<path fill="none" stroke="#FFFFFF" stroke-width="3" stroke-miterlimit="10" d="M195.4,95.2c0,0-21.5-13.6-42.5-15.2
			c-21-1.6-37.9,7.9-42.4,10.2s-10.8,10.8-11.7,13.5c-0.9,2.7-4,12.8-2.5,21"/>
		<path fill="none" stroke="#FFFFFF" stroke-width="3" stroke-miterlimit="10" d="M253.2,87.9C210.9,93.3,197,70,161.8,66.2
			c-35.2-3.8-60,7.4-60,7.4c-5.9,2.7-14.9,15.9-14.9,15.9"/>
		<path fill="none" stroke="#FFFFFF" stroke-width="3" stroke-miterlimit="10" d="M104.8,59.1c0,0,29.4-12.1,62.8-9.6
			c0,0,39.5,9.9,62.1,19.4c0,0,22.4,7.4,76.1,3.8"/>
		<path fill="none" stroke="#FFFFFF" stroke-width="3" stroke-miterlimit="10" d="M183.9,35.6c-7.9-1-17.8-1.5-25.9,0.8"/>
		<path fill="none" stroke="#FFFFFF" stroke-width="3" stroke-miterlimit="10" d="M298.8,65.1c-6.4,9.2-17.2,17.4-35,21.3"/>
		<path fill="none" stroke="#FFFFFF" stroke-width="3" stroke-miterlimit="10" d="M277.7,67c-7.2,8.5-18.6,16.5-36.3,21.7"/>
		<path fill="none" stroke="#FFFFFF" stroke-width="3" stroke-miterlimit="10" d="M233.8,89.5c9.3-7.8,15.9-15.8,20.7-23.5"/>
		<path fill="none" stroke="#FFFFFF" stroke-width="3" stroke-miterlimit="10" d="M233.6,59.7c-4.7,11.3-11.7,23.4-22.4,33.7"/>
		<path fill="none" stroke="#FFFFFF" stroke-width="3" stroke-miterlimit="10" d="M213,51.8c-7,17.5-17.6,37.9-31,44.8"/>
		<path fill="none" stroke="#FFFFFF" stroke-width="3" stroke-miterlimit="10" d="M194.6,42.1c-6.8,16.1-16.3,37.6-20.3,42.9
			c-6.7,8.8-10.6,12.3-14.7,15.4"/>
		<path fill="none" stroke="#FFFFFF" stroke-width="3" stroke-miterlimit="10" d="M178.7,32.2c-6.2,6.8-13,17.5-16.9,34
			c-8.7,36.1-8.7,31-12.2,37.7"/>
		<path fill="none" stroke="#FFFFFF" stroke-width="3" stroke-miterlimit="10" d="M156.7,37c0,0-14.6,10.5-15.5,28.4
			c-0.9,17.9,1.7,39.4,3.8,41.6c0,0-15.3,7.7-25.9,26.2c-10.6,18.5-13.1,25.6-13.3,43.1"/>
		<path fill="none" stroke="#FFFFFF" stroke-width="3" stroke-miterlimit="10" d="M130.9,47.9c0,0-16.9,6.9-5.4,35.7
			c11.5,28.8,22.2,38.1,24.8,42.5"/>
		<path fill="none" stroke="#FFFFFF" stroke-width="3" stroke-miterlimit="10" d="M102.7,60.1c0,0-6.4,7.9,7.8,30
			c14.2,22.1,32.5,36.1,39.7,48.1"/>
		<path fill="none" stroke="#FFFFFF" stroke-width="3" stroke-miterlimit="10" d="M150.7,163.2c0,0,0.8-11.3-13.4-25
			c-14.2-13.8-40.5-32.6-50.5-49.5"/>
		<path fill="none" stroke="#FFFFFF" stroke-width="3" stroke-miterlimit="10" d="M150.2,184.5c0,0-3.8-20.8-21.2-34.2
			c-17.4-13.5-27.7-19.5-33-28.3"/>
		<path fill="none" stroke="#FFFFFF" stroke-width="3" stroke-miterlimit="10" d="M149.6,210.1c0,0-0.9-19.1-16.2-34.5
			c-15.3-15.4-29.7-22.1-33.2-27.1"/>
		<path fill="none" stroke="#FFFFFF" stroke-width="3" stroke-miterlimit="10" d="M150.1,228.9c0,0-2-12.1-13.6-28.5
			c-11.6-16.4-26-21.8-32.5-31.6"/>
		<path fill="none" stroke="#FFFFFF" stroke-width="3" stroke-miterlimit="10" d="M152.7,253.8c0,0-7.7-20-13.5-29.2
			c-5.8-9.3-9.6-14.7-17.1-22.9c-7.5-8.2-11.5-11.6-13.9-15.1"/>
		<path fill="none" stroke="#FFFFFF" stroke-width="3" stroke-miterlimit="10" d="M157.9,277.5c0,0-7.5-11.9-11.3-20.6
			c-3.8-8.8-29.9-46.7-34-51.9"/>
		<path fill="none" stroke="#FFFFFF" stroke-width="3" stroke-miterlimit="10" d="M148.2,286.1c0,0-6.7-17.5-12.9-28.2
			c-6.2-10.7-13.7-23.1-17.9-31.7"/>
		<path fill="none" stroke="#FFFFFF" stroke-width="3" stroke-miterlimit="10" d="M139.6,295c0,0-9.2-20.9-11-26.8
			c-1.8-5.9-9.4-21.7-10.6-24.4"/>
		<path fill="none" stroke="#FFFFFF" stroke-width="3" stroke-miterlimit="10" d="M129.3,307.7c0,0-4.7-18.9-7.4-30.3
			c-2.7-11.4-3.4-17.8-3.8-21.3"/>
		<path fill="none" stroke="#FFFFFF" stroke-width="3" stroke-miterlimit="10" d="M119.2,314.6c0,0,0.6-7.3-1.4-16.8
			c-2-9.5-4.2-17.7-3.5-20.2"/>
		<path fill="none" stroke="#FFFFFF" stroke-width="3" stroke-miterlimit="10" d="M112.3,316.2c0,0-0.3-18.7-1.3-26.2"/>
		<path fill="none" stroke="#FFFFFF" stroke-width="3" stroke-miterlimit="10" d="M257.9,124.1c0,0,21.1-14.9,19.2-40.1"/>
		<path fill="none" stroke="#FFFFFF" stroke-width="3" stroke-miterlimit="10" d="M215.2,145.3c0,0,14.5-8.2,18.6-27.2
			c4.1-19,0.5-22.9,0-27.8"/>
		<path fill="none" stroke="#FFFFFF" stroke-width="3" stroke-miterlimit="10" d="M212.3,147.5c0,0,4.5-3.9,5.4-20.2
			c0.9-16.2-2.5-30.9-5.2-34"/>
		<path fill="none" stroke="#FFFFFF" stroke-width="3" stroke-miterlimit="10" d="M210,150.5c0,0-7.2-45.8-17.6-55"/>
		<path fill="none" stroke="#FFFFFF" stroke-width="3" stroke-miterlimit="10" d="M219.1,164.3c0,0-13.4-0.8-24.4-11.3
			s-24-27.4-35.1-33.4c0,0,17.9-21,55.5-19.2s51.6,12,70.7-0.1"/>
		<path fill="none" stroke="#FFFFFF" stroke-width="3" stroke-miterlimit="10" d="M226.9,172.8c0,0-19.7-1.7-23.4-2.8
			c-3.6-1.1-22.3-11.1-26-12.7c-3.6-1.7-24.7-9.6-28-11.8"/>
		<path fill="none" stroke="#FFFFFF" stroke-width="3" stroke-miterlimit="10" d="M240.9,191c0,0-7.2-10.3-37.2-8.9
			c0,0-41.3-11.8-45-16.5"/>
		<path fill="none" stroke="#FFFFFF" stroke-width="3" stroke-miterlimit="10" d="M249.1,210.1c0,0-4.1-10.3-18.6-11.9
			c-14.4-1.7-25.8,0.2-41.2-7.2c-15.4-7.4-19.5-9.4-21-11.7"/>
		<path fill="none" stroke="#FFFFFF" stroke-width="3" stroke-miterlimit="10" d="M255.4,228.7c0,0-7.6-14.6-26.5-16
			c-19-1.4-34.6-3.7-48.5-16.2"/>
		<path fill="none" stroke="#FFFFFF" stroke-width="3" stroke-miterlimit="10" d="M266,248.4c0,0-14.3-15.5-27.3-18.9
			c-13.1-3.5-36.6-6.6-44.3-14.4"/>
		<path fill="none" stroke="#FFFFFF" stroke-width="3" stroke-miterlimit="10" d="M298.7,283.2c0,0-10.7-5.3-15.7-9.6
			c-5-4.4-20-21.5-35.2-27.4c-15.2-5.9-32.3-10.5-38.3-15.6"/>
		<path fill="none" stroke="#FFFFFF" stroke-width="3" stroke-miterlimit="10" d="M291,301.6c0,0,1.2-2.7-1.7-8.9
			c-2.9-6.2-8-9.7-11.5-14.1c-3.4-4.4-11.3-9.5-21.2-16.3c-9.9-6.8-29.1-13.3-35.5-20"/>
		<path fill="none" stroke="#FFFFFF" stroke-width="3" stroke-miterlimit="10" d="M285.3,310.6c0,0-1-10.8-6.1-17.1
			c-5.1-6.3-6-7.9-8.5-10c-2.5-2.2-7.3-6.6-15.2-11.4c-7.9-4.9-16.3-9.4-19.8-13.4"/>
		<path fill="none" stroke="#FFFFFF" stroke-width="3" stroke-miterlimit="10" d="M284.4,320.3c0,0-4.4-11.1-9.1-16.7
			c-4.7-5.6-9.4-12.6-13.8-16.2c-4.4-3.6-5.6-6.2-8.3-7.2"/>
		<path fill="none" stroke="#FFFFFF" stroke-width="3" stroke-miterlimit="10" d="M285.6,338.7c0,0-6.1-15.3-14-25.8
			c-7.9-10.5-8.7-13-12.7-16"/>
		<path fill="none" stroke="#FFFFFF" stroke-width="3" stroke-miterlimit="10" d="M275.5,346.1c0,0-2.2-19.1-15.1-34.9"/>
		<path fill="none" stroke="#FFFFFF" stroke-width="3" stroke-miterlimit="10" d="M268,344.2c0,0-1.4-11.9-5.6-16.6"/>
		<path fill="none" stroke="#FFFFFF" stroke-width="3" stroke-miterlimit="10" d="M268.8,344.5c0,0,9.7-11.1,13.3-13.6
			c0,0,2.8-4.9,2.5-9.1"/>
		<path fill="none" stroke="#FFFFFF" stroke-width="3" stroke-miterlimit="10" d="M267,338.6c0,0,2.6-10,10-17.3
			c0,0,7.1-19,18.1-39.9c0,0-3.2-7-4.5-7.9"/>
		<path fill="none" stroke="#FFFFFF" stroke-width="3" stroke-miterlimit="10" d="M264.2,330.3c0,0,2.9-13.2,7.3-17.5
			c4.4-4.2,10.6-27.8,10-37.6c0,0-1.2-8.1-2.5-9.4"/>
		<path fill="none" stroke="#FFFFFF" stroke-width="3" stroke-miterlimit="10" d="M261.6,312.6c0,0,20.7-35.4,7.2-59.6"/>
		<path fill="none" stroke="#FFFFFF" stroke-width="3" stroke-miterlimit="10" d="M259.4,300.1c0,0,10.5-28.2,3.1-57.8"/>
		<path fill="none" stroke="#FFFFFF" stroke-width="3" stroke-miterlimit="10" d="M254.3,282c0,0,4.4-36.1,0-54.9"/>
		<path fill="none" stroke="#FFFFFF" stroke-width="3" stroke-miterlimit="10" d="M246.3,271.2c0,0,1.6-46.8,1.7-64.8"/>
		<path fill="none" stroke="#FFFFFF" stroke-width="3" stroke-miterlimit="10" d="M237,259.9c0,0-0.2-13.4,1.6-30.4
			c2.1-18.8,4.1-32-0.8-42.9"/>
		<path fill="none" stroke="#FFFFFF" stroke-width="3" stroke-miterlimit="10" d="M226.7,248.4c0,0,0.5-21,2.1-35.6
			c1.7-14.6,4.5-27.5-5.3-43.7"/>
		<path fill="none" stroke="#FFFFFF" stroke-width="3" stroke-miterlimit="10" d="M215.1,236c0,0,0.9-23.6,2.8-38.5
			c1.9-14.9-0.2-32.5-9.2-43.6"/>
		<path fill="none" stroke="#FFFFFF" stroke-width="3" stroke-miterlimit="10" d="M205.3,227.1c0,0-3.2-3.1-2.9-18.3
			c0.3-15.2,2.5-42.2,0.8-49.6c0,0,2.4-4.8,4.5-6.2c0,0-5.5-3.9-13.4-20.4s-15.2-25.4-23.1-30.3"/>
		<path fill="none" stroke="#FFFFFF" stroke-width="3" stroke-miterlimit="10" d="M190.8,210.7c0,0-2.5-17.1-0.8-32.7
			c1.7-15.6,3.5-45.5,32.4-35.9c0,0,18.1-8.4,25-20.2c7-11.7,9.7-20.9,6.8-34.2"/>
		<path fill="none" stroke="#FFFFFF" stroke-width="3" stroke-miterlimit="10" d="M179.2,194.9c0,0-7.9-22.1-1.6-37.7
			c6.3-15.5,14.6-27.3,28-29.3c13.3-2,28.2,5.2,33.4,7.2"/>
		<path fill="none" stroke="#FFFFFF" stroke-width="3" stroke-miterlimit="10" d="M159.6,166.7c0,0-1.9-22.8,11.4-38.3
			c13.3-15.5,30.6-15.7,46.7-13c16.1,2.7,35,9.1,41.9,7.6"/>
	</g>
</g>
<g>
	<path d="M503.9,61.8h229.7v45h-88.8v241.6h-52.1V106.8h-88.8V61.8z"/>
	<path d="M819.8,168.6c14.7-27.1,36.2-40.6,64.5-40.6c28.3,0,49.1,8.7,62.5,26.1c13.4,17.4,20.1,40.3,20.1,68.9v125.4h-52.1V223
		c0-15.9-3.8-27.9-11.5-36c-7.7-8.1-18.4-12.1-32.2-12.1c-13.8,0-25.7,6.2-35.6,18.5c-9.9,12.4-15.1,30.9-15.7,55.6v99.4h-52.1v-303
		h52.1V168.6z"/>
	<path d="M1197.6,192c3.7,12.4,5.5,23.7,5.5,34c0,10.3-0.6,19.6-1.8,27.8h-138.7c0.6,17.4,4.9,31.5,12.8,42.4
		c8,10.9,20,16.3,36.2,16.3c21.5,0,34.3-9.4,38.4-28.3h52.6c-3.5,21.5-13.4,38.4-29.6,50.8c-16.8,13-37.2,19.4-61.4,19.4
		c-28.3,0-52-10.3-71.1-30.9c-19.7-21.5-29.6-49-29.6-82.6c0-34.4,9.9-62.1,29.6-83c18.8-20,42.5-30,71.1-30
		c29.7,0,52.8,10.5,69.3,31.4C1188.4,168.8,1193.9,179.7,1197.6,192z M1112.1,169.5c-14.7,0-26.2,4.8-34.4,14.4
		c-8.2,9.6-13.1,21.9-14.6,36.9h91.4c0-23.3-7.4-38.9-22.1-46.8C1126.9,171,1120.1,169.5,1112.1,169.5z"/>
	<path d="M1429.2,61.8v119.7h125V61.8h52.1v286.6h-52.1V226.9h-125v121.5h-52.1V61.8H1429.2z"/>
	<path d="M1761.1,128c14.4,0,28,2.3,40.6,6.8c12.7,4.6,23.6,11.6,32.7,21c20.3,20.6,30.5,49.2,30.5,85.7c0,35.9-10.2,64.2-30.5,84.8
		c-18.3,18.8-42.7,28.3-73.3,28.3c-30.6,0-55.4-9.4-74.2-28.3c-20.3-20.3-30.5-48.6-30.5-84.8c0-36.8,10.2-65.4,30.5-85.7
		C1705.5,137.3,1730.2,128,1761.1,128z M1812.8,241.1c0-22.7-4.4-39.7-13.2-51c-8.8-11.3-21.1-17-36.9-17c-15.8,0-28.6,5.7-38.6,17
		c-10,11.3-15,28.3-15,51c0,22.7,4.5,39.7,13.5,51c9,11.3,21.3,17,36.9,17c15.6,0,28.4-5.7,38.4-17
		C1807.8,280.8,1812.8,263.8,1812.8,241.1z"/>
	<path d="M1986.2,223c17.1,0,36.8,2.8,59.2,8.4v-21.2c0-15-3-26.1-9.1-33.3c-6-7.2-15.9-10.8-29.6-10.8s-24.2,2.7-31.6,8.2
		c-7.4,5.5-11,13.2-11,23.2h-57c0-24.4,8.6-42.1,25.8-53c17.2-10.9,41.3-16.3,72.2-16.3c44.2,0,72.7,15.5,85.7,46.4
		c4.4,10.6,6.6,23.1,6.6,37.5v136.5H2052l-4-28.7c-13.8,23.3-35,34.9-63.6,34.9c-27.7,0-49.2-6.8-64.5-20.3
		c-14.1-13-21.2-29.4-21.2-49.2c0-19.9,7.8-35.2,23.4-45.9C1937.7,228.3,1959.1,223,1986.2,223z M2045.3,264.5
		c-17.4-4.7-33.6-7.1-48.6-7.1c-28.3,0-42.4,9.4-42.4,28.3c0,7.9,3.2,14.8,9.7,20.5c6.5,5.7,16.9,8.6,31.1,8.6
		c14.3,0,26.1-4.8,35.3-14.4C2039.8,290.9,2044.8,278.9,2045.3,264.5z"/>
	<path d="M2209.5,176.2c13-30.9,32.4-46.4,58.3-46.4c5,0,11.3,1,19,3.1l-0.9,52.1c-8.2-1.8-16.3-2.7-24.3-2.7
		c-34.7,0-52.1,24-52.1,72v94.1h-52.1V133.3h52.1V176.2z"/>
</g>
</svg>
