<svg xmlns="http://www.w3.org/2000/svg" viewBox="0 0 2109 400"><defs><style>.a,.b{fill:none;stroke:#fff;stroke-miterlimit:10}.a{stroke-width:3.75px}.b{stroke-width:3px}</style></defs><path d="M401 200a200 200 0 01-401 0 200 200 0 11401 0z"/><path d="M175 29l-74 32c-9 5-15 12-14 25s4 18 8 33 3 17 6 37 13 54 16 68-1 45-1 45c-1 8-6 21-6 27a75 75 0 01-6 24l-2 1a94 94 0 01-14 11c-4 3-2 9-2 9v1l41-12c9-1 15-15 18-22 3-8 11-14 16-18 5-3 7 0 8 6s3 21 1 24l8-2v-1s-6-11-5-23c3-13 5-20 0-26a110 110 0 00-16-13l-3-4c-5-7-3-15-4-27-1-10 2-69 2-69a19 19 0 01-2-4v-12l1-3 1-3v-1c-2-11-7-25-7-25 11-11 55-11 76-15 23-3 50-5 71-12 15-6 19-12 23-18" class="a"/><path d="M303 76s2 6-7 15c-10 9-30 33-60 46s-18 6-28 16a202 202 0 0130 34c14 19 9 26 21 49s18 30 23 32c5 3 17 10 17 15 0 6-4 14-11 23-7 8-1 21-1 27 0 7-6 12-6 12" class="a"/><path d="M102 321s11-1 11 14m57-70s-6 9-13 13l-23 23c-2 3-6 13-20 15l-10 2" class="b"/><path d="M296 278s9 3 8 12c0 9 2 17 5 21l6 7-5 5s-11-18-11-22c0 0-9 8-9 30s1 16-4 22c-6 6-21 16-21 16-1 1-6 4-9 2-4-3-6-5-3-9s4-5 5-14c0-8 4-10 5-11l-3-37c-1-6 1-11-11-26a540 540 0 01-85-103c-2-3-14-14-14-21a33 33 0 017-26l17-26" class="a"/><path d="M263 338s2 12 26 7" class="b"/><path fill="none" stroke="#fff" stroke-miterlimit="10" stroke-width="9.8" d="M258 289s19-5 28-19"/><path fill="none" stroke="#fff" stroke-miterlimit="10" stroke-width="8.3" d="M155 253s-13 9-38 10"/><path d="M113 316s53-51 51-56m-58 54s16-24 28-35a115 115 0 0021-25m-5-30s-4 20-19 42l-21 29m5-19c1-5 11-22 18-37l17-42m1-26l-19 40c-12 29-13 35-14 40m32-102s-10 12-19 33a130 130 0 00-14 42m33-101s-15 16-25 35a101 101 0 00-12 45m-13-57c3-14 9-45 37-51 30-5 36 3 36 3" class="b"/><path d="M196 95s-22-13-43-15-37 8-42 10-11 11-12 14-4 12-2 21" class="b"/><path d="M254 88c-43 5-57-18-92-22s-60 8-60 8c-6 3-15 15-15 15m18-30s29-12 63-10c0 1 39 10 62 20 0 0 22 8 76 4M184 35a73 73 0 00-26 1" class="b"/><path d="M299 65a56 56 0 01-35 21m14-19c-7 9-18 16-36 21m-8 1a94 94 0 0020-23m-20-7a107 107 0 01-22 34m1-41c-7 17-17 38-31 45m13-55a406 406 0 01-20 43c-7 9-12 12-15 15m18-68a74 74 0 00-16 34c-9 36-9 31-12 38m7-67s-15 10-16 28 2 40 4 42c0 0-15 8-26 26-10 19-13 26-13 43" class="b"/><path d="M131 48s-17 7-6 35c12 29 23 39 26 43m-48-66s-6 8 8 30 32 36 40 48m0 25s1-11-14-25-40-32-50-49m63 96s-4-21-21-35-28-19-33-28m54 88a62 62 0 00-16-34c-16-15-30-22-33-27m49 80s-1-12-13-29c-12-16-26-21-33-31m49 85l-13-30a163 163 0 00-18-22c-7-9-11-12-14-15m50 90l-11-20a575 575 0 00-34-52m36 81s-7-18-14-28l-17-32m22 69l-11-27-10-24m11 63l-8-30a90 90 0 01-3-21m0 58a54 54 0 00-1-16l-4-21m-1 39l-2-26m147-166s21-15 20-40m-63 61s15-8 19-27 0-23 0-28m-22 58s5-5 6-21-3-31-5-34m-3 57s-7-46-17-55" class="b"/><path d="M219 164a42 42 0 01-24-11c-11-10-24-28-35-34 0 0 18-21 55-18 38 1 52 12 71-1m-59 73l-23-3-26-12c-4-3-25-10-28-12m91 45s-7-10-37-9c0 0-41-12-45-16m90 44s-4-10-18-12c-15-1-26 0-41-7-16-7-20-10-21-12m87 50s-8-15-27-16c-19-2-35-4-48-17m85 52s-14-16-28-19c-12-3-36-6-44-14m104 68l-15-9c-5-5-20-22-35-28-16-6-32-11-38-16m81 71s1-3-2-9-8-9-11-14l-22-16c-9-6-28-13-35-20" class="b"/><path d="M286 311s-2-11-7-18l-8-10a124 124 0 00-15-11c-9-5-17-9-21-13m49 61s-3-11-9-16l-13-17c-4-4-6-6-9-7m33 58s-6-15-14-25c-8-11-9-13-13-16m17 49a72 72 0 00-16-35m8 33s-1-12-5-16" class="b"/><path d="M269 344l13-13s3-5 3-9m-18 16a47 47 0 0111-17 334 334 0 0118-40s-4-7-5-8m-27 57s3-13 8-17 10-28 10-38c0 0-1-8-3-9" class="b"/><path d="M262 313s21-35 7-60m-10 47s11-28 4-58m-9 40s5-36 0-55m-7 44l1-65m-11 54l2-30c2-19 4-33-1-43m-12 61l3-35c2-15 4-28-5-44m-9 67l3-39c2-15 0-32-9-43m-3 73s-3-4-3-19 2-42 0-49l5-6s-5-4-14-20c-7-17-15-26-23-31" class="b"/><path d="M191 211s-3-17 0-33c1-16 3-45 32-36 0 0 18-8 25-20s9-21 6-34" class="b"/><path d="M179 195s-8-22-1-37c6-16 14-28 28-30 13-2 28 5 33 7" class="b"/><path d="M160 167s-2-23 11-39 31-16 47-13 35 9 42 8" class="b"/><path d="M735 66a11 11 0 013 8v29a11 11 0 01-11 11h-73v223a11 11 0 01-11 11h-33a11 11 0 01-11-11V114h-74a11 11 0 01-10-11V74a11 11 0 0111-11h201a11 11 0 018 3zm220 279a11 11 0 01-7 3h-31a11 11 0 01-11-11V234q0-26-12-40t-35-14q-21 0-34 14t-12 39v104a11 11 0 01-11 11h-31a11 11 0 01-11-11V70a11 11 0 0111-11h31a11 11 0 0111 11v86q24-24 58-24 46 0 67 27t21 68v110a11 11 0 01-4 8zm183-199a96 96 0 0135 38 110 110 0 0113 52v18a11 11 0 01-11 11h-136q0 18 14 28t33 10q22 0 34-9a41 41 0 018-5 20 20 0 017-1h33a11 11 0 018 3 10 10 0 013 7q0 9-11 22t-33 23q-21 9-49 9-30 0-53-14t-35-38q-12-25-12-58 0-31 12-56a97 97 0 0135-39q23-15 53-15t52 14zm-7 72q-5-37-45-37-21 0-33 11t-14 26h92zm385-152a11 11 0 013 8v263a11 11 0 01-11 11h-33a11 11 0 01-11-11V229h-123v108a11 11 0 01-11 11h-33a11 11 0 01-8-3 10 10 0 01-3-8V74a11 11 0 0111-11h33a11 11 0 0111 11v105h123V74a11 11 0 0111-11h33a11 11 0 018 3zm227 176l-1 21a97 97 0 01-15 45 92 92 0 01-36 32q-22 12-51 12t-52-12a92 92 0 01-35-32 97 97 0 01-15-45l-1-21 1-20a98 98 0 0115-46 92 92 0 0135-32q23-12 52-12t51 12a92 92 0 0136 32 98 98 0 0115 46l1 20zm-136-51q-14 9-16 33l-1 18v18q3 24 17 33t33 10q19 0 33-10t16-33l1-18-1-18q-2-24-16-33t-33-10q-20 0-33 10zm319-37q25 22 25 63v120a11 11 0 01-11 11h-31a11 11 0 01-11-11v-13q-9 13-26 20t-40 8q-34 0-54-18t-20-45q0-28 20-44t54-22l66-11q0-16-10-23t-28-8q-10 0-16 3a43 43 0 00-11 8q-6 5-14 5h-37a9 9 0 01-7-2 7 7 0 01-3-7q3-12 13-25t30-22q19-9 45-9 42 0 66 22zm-28 100l-55 9q-17 3-24 9a17 17 0 00-8 15q0 8 9 12t21 4q18 0 31-6t19-17a40 40 0 007-22v-5zm138-58q-10 11-10 35v106a11 11 0 01-11 11h-31a11 11 0 01-11-11V147a11 11 0 0111-11h31a11 11 0 0111 11v9a72 72 0 0123-15q12-5 31-5h18a11 11 0 0111 11v27a11 11 0 01-11 11h-26q-25 0-36 11z"/></svg>