<svg xmlns="http://www.w3.org/2000/svg" viewBox="0 0 2109.05 399.75"><defs><style>.a,.b,.c,.d{fill:none;stroke:#fff;stroke-miterlimit:10;}.a{stroke-width:3.75px;}.b{stroke-width:3px;}.c{stroke-width:9.75px;}.d{stroke-width:8.25px;}</style></defs><title>logo17</title><path d="M400.5,200.25c0,110.25-90,199.5-200.25,199.5S0,310.5,0,200.25C0,89.25,90,0,200.25,0S400.5,89.25,400.5,200.25h0Z"/><path class="a" d="M174.75,28.5C159,36.75,111,55.5,101.25,60.75c-9,5.25-15,12-14.25,25.5,0.75,12.75,3.75,18,8.25,33,3.75,15,2.25,17.25,6,36.75S114,210,117,224.25s-0.75,45-.75,45c-1.5,7.5-6,21-6,26.25,0,6-4.5,20.25-6.75,24L102,321c-3,3-10.5,8.25-14.25,10.5-3.75,3-2.25,9-2.25,9l0.75,1.5s32.25-9.75,40.5-12c9-1.5,15.75-15,18-22.5,3-7.5,11.25-13.5,15.75-17.25,5.25-3,7.5,0,8.25,6s3,21,1.5,24l7.5-2.25v-0.75s-6-11.25-4.5-23.25c2.25-12.75,4.5-20.25,0-26.25A109.74,109.74,0,0,0,156.75,255l-3-3.75c-4.5-6.75-3-15-3.75-27-0.75-9.75,1.5-69,1.5-69a19.25,19.25,0,0,1-1.5-3.75V138.75c0.75-.75.75-2.25,0.75-3s0.75-1.5.75-2.25V132c-1.5-11.25-6.75-24.75-6.75-24.75C156,96,199.5,96,221.25,92.25c22.5-3.75,49.5-5.25,70.5-12.75,15-5.25,19.5-11.25,23.25-18"/><path class="a" d="M303,75.75s1.5,6-7.5,15c-9.75,9-30,33-60,45.75s-18,6.75-27.75,16.5a201.69,201.69,0,0,1,30,33.75c14.25,18.75,9,26.25,21,48.75s18.75,30,23.25,32.25c5.25,3,16.5,9.75,16.5,15,0.75,6-3.75,14.25-10.5,23.25-6.75,8.25-1.5,21-1.5,27,0.75,6.75-5.25,12-5.25,12"/><path class="b" d="M102,321s10.5-.75,10.5,13.5"/><path class="b" d="M170.25,264.75s-6.75,9-13.5,13.5c-6,4.5-20.25,20.25-22.5,22.5-2.25,3-6.75,12.75-20.25,15-13.5,3-9.75,2.25-9.75,2.25"/><path class="a" d="M296.25,278.25s8.25,2.25,7.5,12c0,9,2.25,16.5,5.25,20.25l6,7.5-5.25,4.5s-10.5-18-10.5-21.75c0,0-9,8.25-9,30.75s0.75,15.75-4.5,21.75c-6,6-20.25,15.75-21,15.75-0.75.75-6,3.75-9,1.5-3.75-2.25-5.25-4.5-3-9s4.5-4.5,5.25-13.5c0-8.25,3.75-10.5,5.25-11.25,0,0-2.25-30.75-3.75-36.75s1.5-11.25-10.5-26.25c-12.75-15-33.75-39-43.5-46.5S165,174,163.5,171,150,156.75,150,150c-0.75-6.75-1.5-14.25,6.75-26.25,7.5-11.25,16.5-24,17.25-25.5"/><path class="b" d="M262.5,338.25s2.25,11.25,26.25,6.75"/><path class="c" d="M258,288.75s18.75-4.5,27.75-18.75"/><path class="d" d="M154.5,252.75s-12.75,9-37.5,10.5"/><path class="b" d="M113.25,315.75s52.5-51,51-56.25"/><path class="b" d="M105.75,313.5s16.5-23.25,28.5-34.5a114.71,114.71,0,0,0,20.25-25.5"/><path class="b" d="M150,224.25s-3.75,19.5-19.5,42C114,288,111,291.75,110.25,295.5"/><path class="b" d="M114.75,276c1.5-5.25,11.25-21.75,18-36.75,7.5-15.75,17.25-42,17.25-42"/><path class="b" d="M150.75,171s-6,10.5-18.75,39.75C120,240,119.25,246,117.75,250.5"/><path class="b" d="M150,148.5s-9.75,12-19.5,33c-10.5,21-12.75,36.75-13.5,42.75"/><path class="b" d="M150,123s-15,15.75-25.5,34.5a101,101,0,0,0-12,45.75"/><path class="b" d="M99.75,146.25c3.75-14.25,9-45.75,37.5-51,29.25-5.25,36,2.25,36,2.25"/><path class="b" d="M195.75,95.25S174,81.75,153,79.5C132,78,115.5,87.75,111,90s-11.25,10.5-12,13.5-3.75,12.75-2.25,21"/><path class="b" d="M253.5,87.75C210.75,93,197.25,69.75,162,66s-60,7.5-60,7.5c-6,3-15,15.75-15,15.75"/><path class="b" d="M105,59.25s29.25-12,63-9.75c0,0,39,9.75,61.5,19.5,0,0,22.5,7.5,76.5,3.75"/><path class="b" d="M183.75,35.25c-7.5-.75-17.25-1.5-25.5.75"/><path class="b" d="M299.25,65.25c-6.75,9-17.25,17.25-35.25,21"/><path class="b" d="M277.5,66.75c-6.75,9-18,16.5-36,21.75"/><path class="b" d="M234,89.25A93.54,93.54,0,0,0,254.25,66"/><path class="b" d="M234,59.25c-5.25,11.25-12,24-22.5,33.75"/><path class="b" d="M213,51.75C206.25,69,195.75,90,182.25,96.75"/><path class="b" d="M195,42c-6.75,15.75-16.5,37.5-20.25,42.75-6.75,9-11.25,12-15,15.75"/><path class="b" d="M178.5,32.25C172.5,39,165.75,49.5,162,66c-9,36-9,30.75-12,37.5"/><path class="b" d="M156.75,36.75S142.5,47.25,141,65.25c-0.75,18,2.25,39.75,3.75,42,0,0-15,7.5-25.5,25.5-10.5,18.75-13.5,26.25-13.5,43.5"/><path class="b" d="M131.25,48s-17.25,6.75-6,35.25c12,29.25,22.5,38.25,25.5,42.75"/><path class="b" d="M102.75,60s-6,7.5,8.25,30c14.25,21.75,32.25,36,39.75,48"/><path class="b" d="M150.75,162.75s0.75-11.25-13.5-24.75S96.75,105.75,87,88.5"/><path class="b" d="M150,184.5s-3.75-21-21-34.5-27.75-19.5-33-28.5"/><path class="b" d="M150,210a62.21,62.21,0,0,0-16.5-34.5c-15.75-15-30-21.75-33-27"/><path class="b" d="M150,228.75s-1.5-12-13.5-28.5c-11.25-16.5-25.5-21.75-32.25-31.5"/><path class="b" d="M153,253.5s-8.25-19.5-13.5-29.25a163,163,0,0,0-17.25-22.5c-7.5-8.25-11.25-12-14.25-15"/><path class="b" d="M158.25,277.5s-7.5-12-11.25-21c-3.75-8.25-30-46.5-34.5-51.75"/><path class="b" d="M148.5,285.75S141.75,268.5,135,258c-6-10.5-13.5-23.25-17.25-32.25"/><path class="b" d="M139.5,294.75s-9-21-10.5-27c-2.25-5.25-9.75-21.75-10.5-24"/><path class="b" d="M129.75,307.5s-5.25-18.75-7.5-30c-3-11.25-3.75-18-3.75-21.75"/><path class="b" d="M119.25,314.25a53.5,53.5,0,0,0-1.5-16.5c-2.25-9.75-3.75-18-3.75-20.25"/><path class="b" d="M112.5,315.75s-0.75-18-1.5-25.5"/><path class="b" d="M258,123.75S279,109.5,277.5,84"/><path class="b" d="M215.25,145.5s14.25-8.25,18.75-27.75c3.75-18.75,0-22.5,0-27.75"/><path class="b" d="M212.25,147.75s4.5-4.5,5.25-20.25C219,111,215.25,96,213,93"/><path class="b" d="M210,150s-6.75-45.75-17.25-54.75"/><path class="b" d="M219,164.25A42.24,42.24,0,0,1,195,153c-11.25-10.5-24-27.75-35.25-33.75,0,0,18-21,55.5-18.75,37.5,1.5,51.75,12,70.5-.75"/><path class="b" d="M227.25,172.5S207,171,204,169.5c-3.75-.75-22.5-10.5-26.25-12-3.75-2.25-24.75-9.75-27.75-12"/><path class="b" d="M240.75,191.25s-6.75-10.5-36.75-9c0,0-41.25-12-45-16.5"/><path class="b" d="M249,210s-3.75-10.5-18-12c-15-1.5-26.25,0-41.25-6.75-15.75-7.5-19.5-9.75-21-12"/><path class="b" d="M255.75,228.75s-7.5-15-27-15.75c-18.75-1.5-34.5-3.75-48-16.5"/><path class="b" d="M266.25,248.25S252,232.5,238.5,229.5c-12.75-3.75-36-6.75-44.25-14.25"/><path class="b" d="M298.5,282.75s-10.5-5.25-15-9c-5.25-4.5-20.25-21.75-35.25-27.75C232.5,240,216,235.5,210,230.25"/><path class="b" d="M291,301.5s1.5-3-1.5-9-8.25-9.75-11.25-14.25c-3.75-4.5-11.25-9-21.75-15.75-9.75-6.75-28.5-13.5-35.25-20.25"/><path class="b" d="M285.75,310.5s-1.5-10.5-6.75-17.25c-5.25-6-6-7.5-8.25-9.75a124.32,124.32,0,0,0-15-12c-8.25-4.5-16.5-9-20.25-12.75"/><path class="b" d="M284.25,320.25s-3.75-11.25-9-16.5c-4.5-6-9-12.75-13.5-16.5s-6-6-8.25-7.5"/><path class="b" d="M285.75,338.25s-6-15-14.25-25.5C264,302.25,263.25,300,258.75,297"/><path class="b" d="M276,345.75a72,72,0,0,0-15.75-34.5"/><path class="b" d="M267.75,344.25s-0.75-12-5.25-16.5"/><path class="b" d="M269.25,344.25S279,333,282,330.75c0,0,3-4.5,3-9"/><path class="b" d="M267,338.25A46.91,46.91,0,0,1,277.5,321a333.89,333.89,0,0,1,18-39.75s-3.75-6.75-4.5-8.25"/><path class="b" d="M264,330s3-12.75,7.5-17.25S282,285,282,275.25c0,0-1.5-8.25-3-9.75"/><path class="b" d="M261.75,312.75s21-35.25,7.5-60"/><path class="b" d="M259.5,300s10.5-28.5,3-57.75"/><path class="b" d="M254.25,282s4.5-36,0-54.75"/><path class="b" d="M246.75,270.75s1.5-46.5,1.5-64.5"/><path class="b" d="M237,259.5s0-12.75,1.5-30c2.25-18.75,4.5-32.25-.75-42.75"/><path class="b" d="M226.5,248.25s0.75-21,2.25-35.25c2.25-15,4.5-27.75-5.25-44.25"/><path class="b" d="M215.25,236.25s0.75-24,3-39c1.5-15-.75-32.25-9.75-43.5"/><path class="b" d="M205.5,227.25s-3-3.75-3-18.75,2.25-42,.75-49.5c0,0,2.25-4.5,4.5-6,0,0-5.25-3.75-13.5-20.25-7.5-16.5-15-25.5-23.25-30.75"/><path class="b" d="M191.25,210.75s-3-17.25-.75-33c1.5-15.75,3-45,32.25-36,0,0,18-8.25,24.75-20.25,7.5-11.25,9.75-21,6.75-33.75"/><path class="b" d="M179.25,195s-8.25-22.5-1.5-37.5c6-15.75,14.25-27.75,27.75-30,13.5-1.5,28.5,5.25,33.75,7.5"/><path class="b" d="M159.75,166.5S157.5,144,171,128.25s30.75-15.75,46.5-12.75c16.5,2.25,35.25,9,42,7.5"/><path d="M734.89,66.07a10.59,10.59,0,0,1,3.26,7.74v28.93a11.13,11.13,0,0,1-11,11H653.82V337a11.13,11.13,0,0,1-11,11h-33a11.13,11.13,0,0,1-11-11V113.74H525.48a11.13,11.13,0,0,1-11-11V73.81a11.13,11.13,0,0,1,11-11H727.15A10.59,10.59,0,0,1,734.89,66.07Z"/><path d="M955.29,344.74a10.57,10.57,0,0,1-7.74,3.26h-31a11.13,11.13,0,0,1-11-11V233.52q0-25.26-11.81-39.52t-34.63-14.26q-21.19,0-33.81,14.67T812.7,233.52V337a11.13,11.13,0,0,1-11,11h-31a11.13,11.13,0,0,1-11-11V69.74a11.13,11.13,0,0,1,11-11h31a11.13,11.13,0,0,1,11,11v86.78q24.44-24.44,58.67-24.44,46,0,66.61,26.48t20.57,68.85V337A10.57,10.57,0,0,1,955.29,344.74Z"/><path d="M1138.21,146.13a96.07,96.07,0,0,1,35.24,37.68,109.5,109.5,0,0,1,12.43,51.74v18.33a11.13,11.13,0,0,1-11,11H1038.81q0,17.52,13.85,27.91t33,10.39q22.4,0,34.63-9.37a40.89,40.89,0,0,1,7.33-4.48,20.05,20.05,0,0,1,7.74-1.22H1168a10.94,10.94,0,0,1,7.74,3.06,9.5,9.5,0,0,1,3.26,7.13q0,8.56-11.2,21.59t-32.39,22.61q-21.19,9.57-49.7,9.57-30.15,0-52.76-13.85t-34.83-38.7q-12.22-24.85-12.22-57.44,0-30.56,12.22-55.61a96.49,96.49,0,0,1,35-39.72q22.81-14.67,52.56-14.67T1138.21,146.13Zm-7.33,72.31Q1126.39,181,1085.66,181q-21.19,0-33.2,11.41t-13.65,26.07h92.07Z"/><path d="M1515.88,66.07a10.6,10.6,0,0,1,3.26,7.74V337a11.13,11.13,0,0,1-11,11h-33a11.13,11.13,0,0,1-11-11V229.44h-123V337a11.13,11.13,0,0,1-11,11h-33a10.92,10.92,0,0,1-7.74-3.06,10.38,10.38,0,0,1-3.26-7.94V73.81a11.13,11.13,0,0,1,11-11h33a11.13,11.13,0,0,1,11,11v104.7h123V73.81a11.13,11.13,0,0,1,11-11h33A10.6,10.6,0,0,1,1515.88,66.07Z"/><path d="M1742.8,242.48q0,10.6-.81,20.37a97.37,97.37,0,0,1-15.07,45.22,91.9,91.9,0,0,1-35.65,32.18q-22.61,11.81-51.54,11.82t-51.54-11.82a91.84,91.84,0,0,1-35.65-32.18,97.22,97.22,0,0,1-15.07-45.22q-0.41-4.89-.41-20.37,0-15.89.41-20.78a97.8,97.8,0,0,1,15.07-45.63,91.93,91.93,0,0,1,35.65-32.19q22.61-11.81,51.54-11.81t51.54,11.81a92,92,0,0,1,35.65,32.19A98,98,0,0,1,1742,221.7Q1742.8,231.48,1742.8,242.48Zm-136.28-51.74q-13.66,9.78-16.09,33-0.41,4.08-.41,18.33t0.41,18.33q2.44,23.22,16.09,33t33.2,9.78q19.56,0,33.21-9.78t16.09-33q0.81-8.14.81-18.33T1689,223.74q-2.44-23.22-16.09-33T1639.73,181Q1620.17,181,1606.52,190.74Z"/><path d="M1926.33,154.07q24.64,22,24.65,63.15V337a11.13,11.13,0,0,1-11,11h-31a11.13,11.13,0,0,1-11-11V323.56q-9.37,13-25.87,20.78t-39.72,7.74q-34.22,0-54.19-17.72t-20-45.83q0-27.29,19.35-43.39t54-22.2L1898,211.52q0-15.48-10.39-23T1859.72,181q-9.37,0-15.28,2.65a43.37,43.37,0,0,0-11.61,7.94q-6.11,5.71-13.44,5.7H1781.5a9.09,9.09,0,0,1-6.72-2.65,7.35,7.35,0,0,1-2.24-6.32q2.44-12.62,12.83-25.67t29.33-21.8q18.94-8.76,45-8.76Q1901.68,132.07,1926.33,154.07ZM1898,253.48l-55.41,9.78q-16.3,2.85-23.83,8.35a17.45,17.45,0,0,0-7.54,14.87q0,8.15,8.35,12.43t21,4.28q17.92,0,31-6.52t19.76-16.91a40.14,40.14,0,0,0,6.72-22.2v-4.07Z"/><path d="M2036.33,195.83q-10.8,10.8-10.8,35.24V337a11.13,11.13,0,0,1-11,11h-31a11.13,11.13,0,0,1-11-11V147.15a11.13,11.13,0,0,1,11-11h31a11.13,11.13,0,0,1,11,11v9.37A72.42,72.42,0,0,1,2048.76,141q12.22-4.89,31-4.89h18.33a11.13,11.13,0,0,1,11,11V174a11.13,11.13,0,0,1-11,11h-26.48Q2047.13,185,2036.33,195.83Z"/></svg>