<?xml version="1.0" standalone="no"?>
<!DOCTYPE svg PUBLIC "-//W3C//DTD SVG 20010904//EN"
 "http://www.w3.org/TR/2001/REC-SVG-20010904/DTD/svg10.dtd">
<svg version="1.0" xmlns="http://www.w3.org/2000/svg"
 width="700.000000pt" height="700.000000pt" viewBox="0 0 700.000000 700.000000"
 preserveAspectRatio="xMidYMid meet">
<metadata>
Created by potrace 1.11, written by Peter Selinger 2001-2013
</metadata>
<g transform="translate(0.000000,700.000000) scale(0.100000,-0.100000)"
fill="#000000" stroke="none">
<path d="M3310 6994 c-291 -25 -447 -48 -639 -95 -423 -103 -857 -302 -1206
-553 -293 -211 -600 -518 -811 -811 -303 -421 -523 -952 -604 -1457 -35 -222
-44 -340 -44 -578 0 -238 9 -356 44 -578 81 -505 301 -1036 604 -1457 211
-293 518 -600 811 -811 421 -303 952 -523 1457 -604 222 -35 340 -44 578 -44
238 0 356 9 578 44 505 81 1036 301 1457 604 293 211 600 518 811 811 303 421
523 952 604 1457 35 222 44 340 44 578 0 238 -9 356 -44 578 -81 505 -301
1036 -604 1457 -211 293 -518 600 -811 811 -476 342 -1037 557 -1640 629 -126
15 -494 27 -585 19z m-250 -519 c0 -6 -26 -22 -57 -37 l-58 -26 66 -1 c54 -1
69 3 84 19 l19 21 23 -26 c15 -16 35 -25 53 -25 24 0 30 -4 30 -21 0 -20 -4
-21 -59 -16 -52 4 -62 2 -80 -17 -22 -24 -122 -188 -117 -193 7 -7 321 -91
327 -87 4 2 26 49 49 104 40 93 63 120 76 87 2 -7 -14 -54 -36 -104 -22 -50
-40 -95 -40 -99 0 -9 273 -95 296 -94 6 0 25 32 42 70 31 70 37 76 59 62 8 -5
3 -26 -18 -76 -28 -65 -30 -86 -8 -86 5 0 72 -22 147 -50 75 -27 140 -50 143
-50 3 0 18 29 34 65 26 62 49 82 61 51 3 -8 -6 -37 -20 -65 -30 -59 -31 -67
-10 -75 22 -8 252 -46 281 -46 15 0 32 15 53 45 33 47 37 50 59 36 11 -7 8
-16 -13 -47 l-26 -39 52 -7 c29 -3 103 -6 163 -7 l111 -1 48 49 c28 28 55 47
62 44 22 -8 17 -27 -16 -58 -16 -16 -30 -33 -30 -37 0 -5 64 -6 143 -3 l142 6
60 63 c54 57 85 73 85 43 0 -6 -19 -33 -41 -60 l-42 -49 94 7 c90 7 96 9 132
44 22 20 52 59 69 88 29 52 30 52 54 37 l23 -16 -22 -40 c-29 -52 -96 -128
-140 -158 -29 -20 -36 -31 -40 -72 -11 -91 -48 -140 -272 -363 -322 -323 -460
-432 -780 -615 -22 -12 -133 -62 -247 -111 -266 -114 -277 -119 -315 -169
l-32 -43 129 -136 c292 -309 453 -524 523 -698 14 -35 42 -120 62 -190 54
-190 105 -310 206 -493 105 -188 208 -344 272 -411 24 -25 90 -73 145 -108 56
-34 122 -78 146 -99 25 -20 65 -51 89 -69 68 -48 84 -93 96 -253 14 -190 32
-237 145 -370 l55 -65 -62 -62 c-34 -35 -65 -63 -68 -63 -8 0 -111 182 -160
282 -18 37 -37 64 -42 61 -15 -9 -58 -113 -79 -193 -17 -61 -22 -121 -27 -324
l-6 -249 -80 -74 c-138 -129 -354 -291 -426 -319 -26 -11 -57 -15 -91 -12 -45
5 -57 11 -91 48 -37 39 -39 45 -35 89 3 32 17 69 42 110 32 52 40 78 52 162
15 107 29 151 67 201 23 32 24 36 16 143 -28 383 -63 662 -91 730 -12 28 -40
79 -64 115 -94 143 -468 573 -674 775 -264 258 -306 303 -398 421 -108 139
-309 420 -444 620 -52 77 -119 171 -148 208 -52 64 -55 66 -61 43 -4 -14 -13
-224 -20 -466 -15 -507 -4 -930 25 -1010 22 -59 63 -104 154 -165 42 -28 116
-89 163 -136 119 -117 126 -150 89 -398 -33 -218 -24 -318 40 -458 48 -106 47
-108 -69 -131 l-99 -20 5 51 c5 52 -38 382 -58 444 -16 50 -39 56 -87 24 -141
-94 -217 -182 -277 -321 -55 -124 -99 -200 -154 -262 -67 -76 -103 -94 -286
-143 -93 -25 -270 -76 -393 -114 l-222 -69 -15 50 c-19 65 -19 83 4 132 14 32
43 59 137 126 66 48 126 94 134 104 13 16 11 17 -32 14 -56 -5 -53 -1 20 27
53 19 58 24 75 70 36 97 69 221 87 336 11 64 38 186 60 272 52 203 73 395 74
686 l1 225 -72 305 c-195 822 -221 944 -258 1210 -32 224 -60 352 -119 536
-70 217 -88 300 -94 415 -7 169 24 266 116 362 93 97 134 117 767 385 209 88
443 190 520 225 124 57 141 63 153 49 6 -9 12 -21 12 -27z"/>
<path d="M2844 6355 c-34 -7 -75 -20 -90 -28 -33 -17 -109 -95 -144 -146 l-24
-34 25 6 c13 4 88 7 166 7 l143 0 26 53 c15 28 39 70 54 92 14 22 30 46 34 53
10 17 -108 15 -190 -3z"/>
<path d="M2437 6193 c-97 -42 -176 -77 -174 -79 1 -1 59 6 127 17 69 10 130
19 136 19 6 0 30 27 53 60 23 33 41 60 39 60 -2 -1 -83 -35 -181 -77z"/>
<path d="M2620 6113 c-30 -3 -58 -10 -62 -16 -15 -23 -58 -168 -58 -195 l0
-27 158 -2 157 -3 38 118 c20 64 37 120 37 125 0 7 -162 7 -270 0z"/>
<path d="M2917 6048 c-28 -73 -60 -178 -54 -184 2 -2 39 -11 83 -19 43 -8 110
-24 148 -35 38 -11 72 -17 76 -15 15 9 102 217 94 224 -5 4 -72 25 -149 45
-77 21 -147 40 -156 42 -13 3 -23 -11 -42 -58z"/>
<path d="M2330 6078 c-63 -11 -122 -26 -131 -34 -20 -18 -49 -117 -49 -168 0
-36 1 -38 28 -33 15 3 82 12 149 18 l121 13 12 60 c7 34 21 84 31 111 10 28
19 51 19 53 0 6 -77 -2 -180 -20z"/>
<path d="M2055 6015 c-75 -21 -212 -74 -245 -95 -11 -7 -14 -28 -13 -85 0 -42
3 -78 6 -81 3 -3 40 6 84 19 43 13 110 32 148 41 l70 17 3 55 c2 30 10 76 17
101 8 26 13 48 12 49 -1 1 -38 -9 -82 -21z"/>
<path d="M3311 5991 c-5 -9 -29 -61 -54 -117 l-44 -101 135 -56 c85 -35 140
-53 147 -47 15 13 131 237 125 243 -3 2 -71 25 -153 50 -132 40 -148 43 -156
28z"/>
<path d="M3660 5888 c0 -7 -29 -65 -64 -128 -35 -63 -62 -118 -60 -122 4 -6
215 -89 260 -102 18 -5 30 6 71 66 28 40 65 98 82 130 l32 56 -58 22 c-57 22
-254 90 -260 90 -2 0 -3 -6 -3 -12z"/>
<path d="M1697 5852 c-59 -47 -111 -119 -131 -181 -18 -57 -28 -161 -15 -161
5 0 9 4 9 8 0 14 121 145 166 180 25 19 41 39 38 47 -3 7 -9 43 -12 79 l-7 66
-48 -38z"/>
<path d="M2270 5813 c-63 -8 -116 -16 -118 -18 -6 -6 28 -155 45 -197 14 -34
16 -36 41 -27 15 6 68 19 117 28 l90 18 3 106 3 107 -33 -1 c-18 -1 -85 -8
-148 -16z"/>
<path d="M2490 5726 l0 -105 128 -3 c70 -2 129 -2 130 -1 2 1 15 45 28 99 20
78 23 99 12 105 -7 5 -77 9 -155 9 l-143 0 0 -104z"/>
<path d="M2845 5807 c-11 -30 -45 -177 -45 -191 0 -9 8 -16 19 -16 10 0 59
-12 107 -26 49 -15 96 -28 105 -31 11 -3 29 23 67 95 29 55 52 102 52 105 0 7
-112 40 -185 55 -99 21 -116 22 -120 9z"/>
<path d="M2050 5773 c-101 -25 -230 -66 -230 -74 0 -12 60 -141 91 -196 l30
-53 49 25 c43 22 101 46 162 68 16 6 16 9 2 49 -9 24 -23 77 -32 119 l-17 75
-55 -13z"/>
<path d="M3977 5692 c-25 -43 -62 -100 -82 -126 -20 -27 -35 -49 -33 -51 9 -7
175 -35 212 -35 43 0 47 3 150 111 58 61 106 114 106 119 0 4 -24 11 -52 15
-58 7 -193 31 -231 40 -22 6 -29 -2 -70 -73z"/>
<path d="M3138 5627 l-53 -104 105 -46 c59 -26 111 -47 117 -47 18 0 163 185
152 194 -9 7 -251 106 -259 106 -5 0 -33 -47 -62 -103z"/>
<path d="M4366 5685 c-9 -13 -57 -67 -107 -120 -91 -94 -91 -95 -60 -95 87 0
494 193 465 219 -5 5 -70 11 -145 15 l-137 6 -16 -25z"/>
<path d="M5100 5686 c-8 -8 -46 -35 -84 -60 -39 -25 -68 -46 -65 -46 20 0 200
66 247 89 l57 30 -70 1 c-48 0 -76 -5 -85 -14z"/>
<path d="M4735 5680 c-12 -20 -131 -95 -225 -142 -111 -56 -102 -59 84 -28
125 21 256 67 350 122 103 61 106 58 -56 58 -88 0 -149 -4 -153 -10z"/>
<path d="M1696 5613 c-36 -38 -83 -92 -105 -122 l-40 -53 41 -57 c47 -63 120
-146 129 -146 4 0 27 27 51 60 25 33 64 77 88 99 37 33 41 41 32 57 -25 39
-79 146 -95 187 -9 23 -21 42 -26 42 -5 0 -39 -30 -75 -67z"/>
<path d="M5230 5620 c-50 -25 -202 -79 -285 -99 l-70 -17 -6 -80 c-6 -69 -26
-170 -45 -219 -9 -22 13 -19 81 14 47 22 87 56 190 162 124 127 181 208 173
243 -2 12 -9 11 -38 -4z"/>
<path d="M3457 5538 c-25 -35 -60 -79 -77 -100 l-30 -36 34 -22 c34 -20 39
-21 163 -9 l128 13 53 49 c51 49 62 67 42 67 -6 0 -68 23 -137 50 -69 28 -127
50 -128 50 -1 0 -22 -28 -48 -62z"/>
<path d="M2499 5576 c-5 -5 6 -195 12 -200 2 -2 42 -1 89 3 l85 6 21 65 c36
113 37 117 11 124 -25 7 -211 8 -218 2z"/>
<path d="M2395 5565 c-5 -2 -45 -11 -87 -21 -43 -9 -78 -22 -77 -28 1 -30 77
-181 90 -180 8 1 43 8 79 15 l65 13 -7 90 c-3 50 -7 97 -7 104 -1 11 -32 15
-56 7z"/>
<path d="M2761 5480 c-14 -47 -20 -85 -15 -89 5 -5 43 -11 85 -14 l75 -5 50
60 c27 32 50 63 52 67 3 8 -128 47 -192 58 l-32 5 -23 -82z"/>
<path d="M2120 5486 c-50 -21 -140 -64 -148 -71 -4 -4 64 -105 105 -157 l29
-36 43 29 c24 16 61 36 82 46 22 9 38 20 37 23 -2 3 -21 47 -43 98 -22 50 -42
91 -45 91 -3 0 -30 -10 -60 -23z"/>
<path d="M4730 5475 c-36 -7 -105 -18 -155 -25 l-90 -12 0 -129 c0 -113 2
-130 17 -135 24 -7 244 -7 257 0 22 14 71 207 71 283 0 38 -1 38 -100 18z"/>
<path d="M3000 5419 c-29 -33 -51 -61 -49 -63 2 -1 23 -10 46 -20 56 -25 160
-15 221 20 23 14 42 29 42 33 0 10 -172 91 -193 91 -8 0 -38 -27 -67 -61z"/>
<path d="M3791 5439 c-33 -38 -33 -39 -10 -38 13 0 76 8 139 18 l115 17 -85
17 c-47 9 -94 19 -105 21 -14 4 -30 -7 -54 -35z"/>
<path d="M4262 5410 c-73 -10 -135 -20 -138 -23 -3 -2 0 -24 5 -48 6 -24 11
-58 11 -75 0 -37 -7 -35 168 -60 107 -15 125 -16 133 -3 10 16 12 116 3 183
-8 54 9 51 -182 26z"/>
<path d="M1874 5348 c-54 -56 -114 -138 -114 -153 0 -12 160 -165 172 -165 3
0 17 17 30 38 14 20 44 56 67 79 24 23 41 46 39 50 -8 19 -141 193 -147 193
-4 0 -25 -19 -47 -42z"/>
<path d="M3900 5360 c-63 -10 -120 -19 -127 -19 -9 -1 -9 -10 1 -38 l13 -38
129 -12 c71 -6 141 -13 156 -15 33 -5 34 1 17 85 -14 67 -5 65 -189 37z"/>
<path d="M3291 5357 c-8 -11 -4 -13 20 -9 22 3 27 7 18 13 -19 12 -25 11 -38
-4z"/>
<path d="M2548 5333 c-21 -3 -28 -10 -28 -27 0 -26 18 -127 24 -133 2 -2 17 4
34 14 21 12 42 39 62 79 16 34 30 64 30 68 0 6 -76 6 -122 -1z"/>
<path d="M2710 5315 c-5 -14 -16 -38 -24 -54 l-15 -29 60 19 c60 19 132 66
123 81 -3 4 -34 8 -70 8 -60 0 -65 -2 -74 -25z"/>
<path d="M1576 5300 c6 -32 82 -281 87 -287 2 -1 11 36 20 83 l18 86 -38 45
c-21 25 -51 59 -66 76 l-28 32 7 -35z"/>
<path d="M3543 5316 c-56 -6 -105 -14 -108 -18 -4 -3 -1 -16 5 -28 10 -19 18
-21 53 -16 23 3 88 8 144 12 l101 6 -10 29 c-11 33 -16 34 -185 15z"/>
<path d="M2425 5313 c-11 -2 -37 -9 -58 -14 l-37 -10 16 -32 c9 -18 34 -62 56
-99 l39 -68 34 23 c23 14 33 27 29 37 -4 11 -29 133 -34 168 0 3 -20 1 -45 -5z"/>
<path d="M2899 5303 c-13 -15 -11 -16 11 -10 14 4 32 7 40 7 13 0 13 1 0 10
-22 14 -36 12 -51 -7z"/>
<path d="M3216 5280 c-135 -15 -150 -19 -167 -41 -18 -24 -18 -24 19 -56 20
-18 44 -31 52 -28 8 3 62 20 120 39 58 19 120 38 138 43 l32 8 -22 26 -23 26
-149 -17z"/>
<path d="M2203 5233 c-35 -21 -63 -41 -63 -46 0 -11 160 -197 169 -197 3 0 26
18 50 39 l45 38 -52 92 c-29 50 -52 95 -52 101 0 19 -36 9 -97 -27z"/>
<path d="M2860 5225 c-170 -38 -280 -86 -280 -123 0 -11 5 -34 12 -53 6 -18
26 -89 43 -157 l31 -124 161 241 c88 133 155 241 149 240 -6 0 -58 -11 -116
-24z"/>
<path d="M3508 5213 c-16 -2 -28 -6 -28 -9 0 -3 10 -30 23 -62 13 -31 27 -70
33 -86 8 -27 13 -30 64 -32 30 -2 83 -6 118 -9 l62 -6 0 38 c-1 21 -6 67 -13
103 l-12 65 -110 1 c-61 1 -122 -1 -137 -3z"/>
<path d="M3803 5193 c3 -15 11 -65 17 -111 11 -71 15 -83 34 -87 162 -36 210
-44 217 -33 9 14 29 148 29 192 0 38 -5 40 -130 51 -36 3 -89 8 -119 11 l-54
6 6 -29z"/>
<path d="M3330 5179 c-82 -21 -160 -48 -173 -59 -5 -4 17 -39 48 -78 l56 -70
58 19 c32 10 86 21 120 25 34 3 61 9 61 13 -1 25 -68 166 -80 168 -8 1 -49 -7
-90 -18z"/>
<path d="M4140 5128 c-1 -29 -7 -83 -14 -121 l-13 -67 36 -10 c20 -5 67 -16
104 -24 66 -13 68 -13 82 8 21 31 81 167 89 198 7 32 13 30 -136 53 -152 23
-148 25 -148 -37z"/>
<path d="M2962 5110 c-22 -33 -39 -60 -36 -60 5 0 118 66 134 78 6 4 -39 42
-49 42 -4 0 -26 -27 -49 -60z"/>
<path d="M2054 5108 c-23 -24 -51 -58 -63 -76 -27 -39 -30 -35 86 -134 l85
-72 54 62 c30 34 55 64 55 67 1 9 -162 195 -170 195 -4 0 -25 -19 -47 -42z"/>
<path d="M4815 5143 c-12 -2 -32 -26 -49 -56 l-29 -52 54 49 c30 27 58 53 64
58 9 8 -3 9 -40 1z"/>
<path d="M1736 5129 c-11 -30 -25 -107 -32 -177 -6 -68 -5 -75 20 -110 14 -21
39 -51 55 -66 l29 -28 13 39 c6 21 29 75 50 119 l37 82 -41 38 c-125 116 -126
117 -131 103z"/>
<path d="M4456 5075 c-9 -30 -32 -84 -51 -122 -19 -37 -32 -69 -30 -72 3 -2
38 -6 80 -9 l75 -5 64 66 c53 54 96 110 138 182 4 6 -42 11 -126 12 l-132 3
-18 -55z"/>
<path d="M2492 5074 c-12 -8 -22 -19 -22 -23 0 -5 23 -39 50 -77 28 -38 50
-65 50 -60 0 14 -43 161 -50 168 -3 4 -16 1 -28 -8z"/>
<path d="M3032 5061 c-64 -36 -173 -113 -193 -137 -11 -13 -11 -18 -1 -21 6
-3 44 -29 82 -59 l70 -55 54 48 c30 26 81 64 115 84 l60 36 -55 67 c-30 36
-60 66 -67 66 -6 0 -36 -13 -65 -29z"/>
<path d="M2381 4992 l-43 -37 88 -97 89 -97 28 32 c15 17 27 34 27 37 0 5
-123 176 -139 192 -3 4 -26 -9 -50 -30z"/>
<path d="M3430 4973 c-14 -2 -53 -11 -87 -20 l-62 -16 25 -41 c14 -23 41 -72
61 -111 19 -38 36 -71 38 -73 1 -2 18 6 36 17 19 10 54 25 79 32 25 7 46 14
48 15 2 1 -9 48 -24 103 l-27 101 -31 -1 c-17 -1 -42 -4 -56 -6z"/>
<path d="M3560 4979 c0 -2 13 -46 28 -97 l27 -94 88 -3 87 -3 0 88 c0 74 -3
89 -17 94 -20 8 -213 21 -213 15z"/>
<path d="M1901 4866 c-61 -139 -61 -146 -11 -189 23 -20 60 -48 83 -64 34 -23
41 -25 49 -13 4 8 31 52 58 98 28 46 50 87 50 91 0 5 -42 45 -94 89 l-94 81
-41 -93z"/>
<path d="M3830 4862 l0 -88 68 -18 c37 -10 72 -20 79 -23 7 -2 23 17 36 44 24
46 50 124 44 130 -5 4 -197 43 -213 43 -11 0 -14 -20 -14 -88z"/>
<path d="M2251 4863 c-28 -31 -51 -60 -51 -64 0 -7 185 -172 199 -177 4 -1 27
22 49 52 l42 55 -87 93 c-47 51 -89 94 -93 96 -4 2 -31 -23 -59 -55z"/>
<path d="M3178 4883 c-26 -16 -72 -50 -103 -76 l-56 -49 102 -106 c56 -59 105
-107 108 -107 4 0 37 32 74 72 l68 72 -59 108 c-32 59 -65 109 -73 111 -8 1
-35 -10 -61 -25z"/>
<path d="M4100 4886 c0 -6 -15 -47 -33 -92 l-33 -81 45 -16 c42 -15 46 -15 70
3 33 23 141 136 141 147 0 12 -190 51 -190 39z"/>
<path d="M2764 4814 c-68 -106 -114 -234 -114 -315 0 -35 2 -37 68 -68 38 -17
71 -31 75 -31 3 0 16 33 28 73 24 80 66 169 112 236 l30 44 -34 29 c-42 36
-116 88 -123 88 -4 0 -22 -25 -42 -56z"/>
<path d="M4265 4754 c-68 -75 -74 -84 -45 -69 41 20 240 139 237 141 -1 1 -27
4 -57 8 l-55 6 -80 -86z"/>
<path d="M2571 4760 c-25 -34 -23 -38 29 -100 l22 -25 -5 62 c-3 33 -9 68 -14
77 -8 14 -12 12 -32 -14z"/>
<path d="M1731 4749 c0 -8 6 -50 13 -94 l12 -80 12 40 c25 89 25 89 -8 120
-18 18 -30 23 -29 14z"/>
<path d="M2142 4718 c-43 -64 -95 -159 -90 -164 3 -2 49 -37 103 -78 l99 -74
58 84 c32 46 58 88 58 92 0 8 -32 37 -162 151 l-37 32 -29 -43z"/>
<path d="M3630 4708 c5 -18 14 -58 20 -89 l11 -57 49 2 49 1 11 48 c5 26 10
66 10 87 l0 40 -79 0 -79 0 8 -32z"/>
<path d="M3490 4704 c-30 -14 -56 -27 -58 -29 -3 -3 58 -126 76 -153 7 -11 19
-9 58 10 27 12 50 23 51 23 2 0 -26 134 -33 158 -7 23 -29 21 -94 -9z"/>
<path d="M3825 4683 c-4 -26 -11 -65 -15 -85 -7 -32 -5 -38 11 -43 10 -4 27 0
38 7 27 19 101 110 101 124 0 6 -21 17 -47 23 -27 7 -56 14 -65 17 -13 4 -18
-4 -23 -43z"/>
<path d="M2973 4694 c-57 -80 -144 -298 -126 -314 12 -11 243 -103 247 -99 1
2 28 52 58 111 l56 107 -107 112 -107 113 -21 -30z"/>
<path d="M2473 4638 l-39 -52 60 -76 c34 -41 69 -86 78 -100 17 -25 17 -24 17
46 1 39 4 85 7 100 4 23 -2 40 -33 82 -21 28 -41 52 -44 52 -4 0 -24 -23 -46
-52z"/>
<path d="M3989 4647 c-12 -18 -34 -44 -47 -59 -14 -16 -22 -28 -17 -28 17 0
154 83 150 91 -3 4 -18 12 -35 17 -27 10 -31 8 -51 -21z"/>
<path d="M1825 4658 c-2 -7 -15 -57 -29 -111 -30 -121 -24 -148 39 -195 42
-32 65 -35 65 -8 0 7 20 54 45 106 37 75 43 96 33 105 -62 55 -149 114 -153
103z"/>
<path d="M3326 4578 c-31 -34 -56 -66 -56 -72 0 -7 31 -42 68 -79 l68 -67 18
32 c11 18 28 43 40 56 l21 23 -45 85 c-25 46 -48 84 -52 84 -3 0 -31 -28 -62
-62z"/>
<path d="M2348 4464 c-29 -41 -53 -79 -53 -83 0 -4 37 -47 82 -95 l81 -87 46
71 c25 39 46 75 46 81 0 22 -124 189 -141 189 -5 0 -32 -34 -61 -76z"/>
<path d="M3677 4483 c8 -51 11 -52 39 -20 34 40 31 57 -10 57 -34 0 -35 0 -29
-37z"/>
<path d="M1980 4425 c-65 -137 -67 -130 39 -207 l90 -67 39 72 c21 40 49 88
60 108 l22 35 -95 72 c-51 40 -98 72 -104 72 -6 0 -29 -38 -51 -85z"/>
<path d="M3583 4493 c-18 -9 -33 -21 -33 -26 0 -18 72 -108 84 -104 12 4 13
51 2 110 -8 42 -9 42 -53 20z"/>
<path d="M3187 4368 c-26 -51 -47 -98 -47 -103 0 -15 191 -108 200 -98 4 4 15
41 26 81 l18 72 -69 70 c-38 39 -72 70 -76 70 -3 0 -27 -42 -52 -92z"/>
<path d="M3470 4383 c-17 -26 -30 -50 -30 -55 0 -8 90 -77 101 -78 4 0 19 16
33 35 l27 35 -43 55 c-23 30 -46 55 -51 55 -4 0 -21 -21 -37 -47z"/>
<path d="M2650 4386 c0 -39 28 -104 74 -170 l41 -59 12 98 c7 55 11 99 10 100
-1 1 -27 12 -57 24 -30 13 -61 25 -67 28 -9 3 -13 -4 -13 -21z"/>
<path d="M2223 4269 c-23 -41 -49 -91 -59 -111 l-17 -37 34 -28 c19 -15 59
-52 90 -81 l57 -53 51 96 c28 52 51 99 51 104 0 5 -37 48 -83 96 l-82 87 -42
-73z"/>
<path d="M1805 4263 c8 -37 18 -86 23 -108 10 -44 8 -49 33 63 6 29 10 54 8
56 -2 1 -20 15 -40 30 l-37 27 13 -68z"/>
<path d="M2826 4303 c-3 -16 -8 -67 -12 -116 l-6 -87 65 -30 c36 -16 88 -38
116 -49 l50 -19 6 47 c6 57 24 158 31 175 3 8 -35 28 -113 59 -65 26 -121 47
-125 47 -3 0 -9 -12 -12 -27z"/>
<path d="M2530 4230 l-44 -73 27 -46 c15 -25 38 -66 50 -91 28 -58 27 -57 37
-40 28 45 19 234 -13 296 -14 26 -14 26 -57 -46z"/>
<path d="M3416 4271 c-3 -4 -10 -30 -16 -57 -6 -27 -13 -56 -15 -64 -4 -12 17
-27 75 -55 44 -21 81 -37 83 -34 2 2 2 34 -1 71 l-4 68 -59 40 c-32 22 -60 36
-63 31z"/>
<path d="M3605 4256 c-9 -14 -14 -29 -11 -34 8 -13 96 -45 103 -38 8 8 -47 88
-64 93 -6 2 -19 -7 -28 -21z"/>
<path d="M1905 4218 c-20 -90 -25 -119 -25 -165 0 -51 1 -53 60 -105 33 -29
63 -53 66 -53 4 0 21 41 39 90 18 50 36 97 39 107 6 12 -12 30 -71 75 -104 79
-102 78 -108 51z"/>
<path d="M3110 4186 c-6 -17 -14 -69 -17 -116 l-6 -85 100 -32 c54 -18 104
-33 109 -33 9 0 34 132 34 177 0 7 -47 36 -105 66 l-104 53 -11 -30z"/>
<path d="M3584 4163 c3 -8 6 -39 6 -68 0 -59 -7 -55 118 -71 44 -6 52 -4 52
10 0 32 -32 96 -49 96 -9 0 -42 11 -74 24 -46 19 -57 21 -53 9z"/>
<path d="M2453 4098 c-5 -7 -29 -48 -52 -91 l-43 -78 36 -39 c19 -21 47 -57
62 -80 15 -22 29 -40 33 -40 3 1 21 34 40 75 l34 74 -36 76 c-48 101 -61 119
-74 103z"/>
<path d="M3798 4061 c15 -48 16 -49 59 -53 23 -2 43 -1 43 2 0 11 -96 100
-107 100 -8 0 -6 -15 5 -49z"/>
<path d="M3361 3998 c-7 -50 -10 -93 -7 -95 2 -2 45 -17 95 -33 l92 -28 -3 85
-3 86 -81 37 -82 38 -11 -90z"/>
<path d="M2098 4008 c-33 -91 -51 -149 -46 -152 1 -1 39 -31 82 -67 44 -35 81
-59 83 -54 2 6 23 50 46 98 l44 89 -86 79 c-47 43 -88 79 -91 79 -3 0 -17 -33
-32 -72z"/>
<path d="M2880 4014 c0 -2 24 -41 54 -85 45 -68 109 -129 122 -117 1 2 0 35
-4 73 l-7 69 -82 32 c-46 18 -83 30 -83 28z"/>
<path d="M3588 3923 c-3 -43 -4 -81 -1 -86 2 -4 51 -7 109 -6 l105 1 -5 26
c-3 15 -8 46 -11 70 -7 47 -7 46 -109 57 -33 4 -65 9 -71 11 -9 4 -14 -18 -17
-73z"/>
<path d="M3824 3953 c2 -10 8 -44 12 -75 6 -57 7 -58 38 -58 17 0 48 -5 69
-11 22 -6 41 -8 43 -6 6 5 -41 137 -53 147 -4 4 -32 11 -61 14 -49 6 -53 5
-48 -11z"/>
<path d="M1880 3930 c0 -38 46 -199 63 -224 l21 -29 18 83 c10 46 15 87 10 90
-4 4 -31 26 -59 49 -29 24 -53 37 -53 31z"/>
<path d="M3095 3877 c3 -34 9 -70 11 -80 5 -14 168 -107 189 -107 3 0 4 41 3
91 l-3 92 -103 32 -104 33 7 -61z"/>
<path d="M2292 3793 c-23 -49 -42 -93 -42 -98 1 -6 31 -43 69 -83 l67 -73 39
86 c38 86 38 87 21 119 -23 43 -89 129 -102 133 -6 2 -29 -36 -52 -84z"/>
<path d="M4025 3834 c9 -38 17 -49 44 -60 19 -8 35 -14 38 -14 4 0 -32 47 -87
113 -4 5 -2 -13 5 -39z"/>
<path d="M2550 3789 l-33 -66 39 -92 39 -92 3 134 c1 74 -2 145 -6 158 -9 22
-12 19 -42 -42z"/>
<path d="M3340 3761 l0 -92 45 -19 c24 -10 67 -26 93 -34 l49 -14 7 60 c3 34
6 78 6 98 l0 38 -70 21 c-38 12 -83 24 -100 27 l-30 7 0 -92z"/>
<path d="M2035 3798 c-3 -7 -11 -44 -19 -82 l-14 -69 61 -68 c33 -38 62 -68
63 -66 1 1 17 40 35 87 l32 84 -39 34 c-88 77 -114 94 -119 80z"/>
<path d="M3578 3694 c-2 -53 0 -98 3 -100 13 -7 191 -25 205 -20 11 4 14 28
14 111 l0 105 -109 0 -110 0 -3 -96z"/>
<path d="M3841 3676 c-2 -120 -6 -116 107 -116 l62 0 0 74 c0 109 -7 121 -76
134 -97 20 -91 26 -93 -92z"/>
<path d="M3055 3750 c3 -5 8 -10 11 -10 2 0 4 5 4 10 0 6 -5 10 -11 10 -5 0
-7 -4 -4 -10z"/>
<path d="M3124 3713 c2 -10 10 -38 16 -63 9 -33 26 -59 65 -96 29 -29 62 -57
74 -63 21 -11 21 -10 21 69 l0 80 -91 45 c-72 37 -90 42 -85 28z"/>
<path d="M4051 3642 l0 -88 69 -21 70 -20 0 23 c0 34 -22 127 -34 142 -11 15
-79 52 -95 52 -6 0 -10 -37 -10 -88z"/>
<path d="M2450 3579 c-38 -91 -42 -70 32 -191 l35 -57 27 68 c26 67 26 69 10
117 -23 71 -55 144 -63 144 -3 0 -22 -37 -41 -81z"/>
<path d="M2193 3565 l-33 -87 61 -74 c34 -41 65 -74 69 -74 13 0 71 151 65
169 -3 9 -33 48 -68 85 l-62 68 -32 -87z"/>
<path d="M3340 3556 c0 -93 9 -108 77 -138 102 -45 99 -46 106 14 4 29 7 69 7
88 l0 36 -82 28 c-46 15 -89 30 -95 33 -10 3 -13 -12 -13 -61z"/>
<path d="M1990 3509 c0 -74 12 -112 54 -163 l23 -30 22 73 22 72 -52 59 c-29
33 -56 60 -60 60 -5 0 -9 -32 -9 -71z"/>
<path d="M4231 3550 c-1 -42 10 -68 35 -85 l25 -16 -14 34 c-8 18 -22 47 -30
63 -16 29 -16 29 -16 4z"/>
<path d="M3568 3460 c-2 -75 0 -94 12 -100 12 -6 168 -40 185 -40 1 0 6 26 9
58 4 31 9 78 12 103 l5 46 -87 7 c-48 3 -97 9 -110 12 -22 6 -23 4 -26 -86z"/>
<path d="M3830 3499 c-1 -13 -5 -58 -10 -99 -5 -41 -5 -78 -2 -81 4 -4 43 -9
88 -13 l81 -6 11 102 c6 56 9 104 7 106 -2 2 -42 7 -89 9 -85 6 -86 6 -86 -18z"/>
<path d="M4041 3403 c-7 -58 -11 -106 -9 -107 2 -1 28 -7 58 -13 30 -6 62 -14
71 -18 22 -8 29 20 29 120 l0 81 -37 14 c-21 7 -52 16 -69 20 l-32 7 -11 -104z"/>
<path d="M2381 3418 c-5 -13 -21 -49 -35 -81 l-26 -57 53 -80 c28 -44 54 -80
57 -80 7 0 60 141 60 158 0 16 -76 148 -90 157 -6 3 -14 -4 -19 -17z"/>
<path d="M3291 3423 c7 -12 15 -20 18 -17 3 2 -3 12 -13 22 -17 16 -18 16 -5
-5z"/>
<path d="M4237 3400 c-4 -18 -7 -61 -7 -95 0 -62 1 -64 36 -85 19 -12 37 -20
40 -17 3 2 8 36 11 75 l6 70 -40 43 -40 42 -6 -33z"/>
<path d="M2130 3378 c-6 -24 -15 -58 -20 -77 -8 -30 -4 -40 44 -112 l53 -80
33 81 c21 53 29 84 23 93 -45 60 -109 137 -115 137 -4 0 -12 -19 -18 -42z"/>
<path d="M3356 3361 c8 -45 83 -135 133 -161 l37 -18 -3 61 c-3 34 -5 68 -6
75 -1 7 -39 28 -85 46 l-82 33 6 -36z"/>
<path d="M2566 3340 c-20 -50 -19 -65 4 -115 l19 -40 0 98 c1 53 -1 97 -3 97
-2 0 -11 -18 -20 -40z"/>
<path d="M3565 3244 c4 -43 12 -82 18 -86 24 -15 149 -49 163 -44 10 4 14 23
14 70 0 35 2 71 5 78 4 10 -17 18 -83 30 -48 10 -96 20 -106 24 -17 6 -17 1
-11 -72z"/>
<path d="M2031 3275 c0 -11 4 -29 9 -40 8 -18 9 -18 9 5 0 14 -4 32 -9 40 -8
12 -10 12 -9 -5z"/>
<path d="M3807 3225 c-4 -26 -7 -67 -7 -91 l0 -43 76 -17 c42 -9 79 -13 84 -8
4 5 11 51 15 102 l7 92 -25 0 c-13 0 -51 3 -84 6 l-60 7 -6 -48z"/>
<path d="M4017 3174 c-12 -136 -14 -129 46 -143 28 -6 62 -14 73 -17 20 -5 22
-1 28 58 4 34 9 80 12 101 5 35 4 38 -28 51 -18 8 -54 17 -79 21 l-46 7 -6
-78z"/>
<path d="M2270 3150 l-32 -80 52 -80 c29 -44 54 -79 55 -78 2 2 17 37 35 79
l32 77 -55 81 -54 82 -33 -81z"/>
<path d="M2512 3200 c-6 -14 -20 -49 -31 -78 l-21 -54 42 -78 c23 -43 45 -77
49 -75 3 2 14 34 24 70 l17 66 -26 72 c-36 99 -42 108 -54 77z"/>
<path d="M2086 3189 c-22 -69 -12 -149 27 -217 l24 -42 26 66 26 67 -31 46
c-56 81 -67 95 -72 80z"/>
<path d="M4361 3178 c-1 -15 4 -30 9 -33 12 -7 12 12 0 40 -8 18 -9 17 -9 -7z"/>
<path d="M4216 3138 c-4 -29 -7 -73 -9 -97 l-2 -43 53 -24 53 -23 -3 97 -3 96
-34 23 c-19 13 -37 23 -42 23 -4 0 -10 -24 -13 -52z"/>
<path d="M3591 3083 c8 -26 121 -131 150 -141 5 -2 9 23 9 57 l0 60 -71 21
c-39 12 -78 24 -85 27 -11 4 -12 -1 -3 -24z"/>
<path d="M4350 3018 l0 -87 46 -31 c25 -18 48 -29 51 -26 3 3 1 38 -5 77 -10
65 -15 77 -51 113 l-41 41 0 -87z"/>
<path d="M3790 2983 l0 -68 79 -31 79 -31 6 30 c3 16 6 51 6 78 0 37 -4 49
-17 53 -19 5 -79 20 -125 30 l-28 6 0 -67z"/>
<path d="M2191 2951 c-11 -32 -21 -64 -21 -71 0 -7 19 -47 42 -88 l41 -76 35
71 36 71 -50 76 c-27 42 -52 76 -55 76 -4 0 -16 -26 -28 -59z"/>
<path d="M2407 2948 c-14 -35 -28 -68 -29 -75 -3 -13 82 -153 93 -153 8 0 49
106 49 126 0 17 -72 164 -81 164 -3 0 -18 -28 -32 -62z"/>
<path d="M4000 2918 l0 -84 67 -22 c37 -12 68 -20 69 -19 2 1 6 41 10 89 l7
86 -54 11 c-30 7 -64 14 -76 17 -23 6 -23 4 -23 -78z"/>
<path d="M4190 2907 c0 -24 -3 -64 -6 -89 l-6 -44 57 -22 c32 -13 60 -20 62
-18 3 2 5 41 6 87 2 82 2 83 -28 100 -16 10 -42 21 -57 24 -27 7 -28 6 -28
-38z"/>
<path d="M2091 2900 c1 -8 5 -26 9 -40 l8 -25 1 25 c0 14 -4 32 -9 40 -9 13
-10 13 -9 0z"/>
<path d="M2584 2879 c-9 -30 -8 -41 7 -70 17 -32 18 -32 18 -9 0 14 -4 45 -7
70 l-7 45 -11 -36z"/>
<path d="M4350 2796 l0 -86 50 -25 c27 -14 52 -25 55 -25 3 0 5 31 5 68 0 74
-4 80 -77 131 l-33 22 0 -85z"/>
<path d="M3870 2796 c35 -36 68 -66 72 -66 4 0 8 17 8 39 0 41 1 40 -125 86
-11 4 9 -22 45 -59z"/>
<path d="M4500 2842 c0 -11 9 -27 20 -37 24 -22 25 -14 5 25 -18 34 -25 38
-25 12z"/>
<path d="M2126 2767 c-20 -70 -21 -64 15 -144 l31 -68 29 58 30 58 -32 57
c-58 102 -55 101 -73 39z"/>
<path d="M2316 2743 l-35 -70 42 -71 c22 -40 43 -72 46 -72 3 0 23 31 43 68
l37 68 -41 64 c-22 36 -44 69 -48 74 -5 5 -24 -23 -44 -61z"/>
<path d="M3990 2743 l0 -49 65 -32 c36 -18 68 -32 70 -32 3 0 5 26 5 58 l0 58
-57 18 c-32 10 -64 21 -70 23 -9 4 -13 -9 -13 -44z"/>
<path d="M2522 2725 l-24 -54 29 -50 c15 -28 32 -51 36 -51 4 0 21 7 37 15
l30 15 -19 48 c-46 115 -54 132 -60 132 -3 0 -17 -25 -29 -55z"/>
<path d="M4510 2691 c5 -70 5 -70 50 -100 24 -16 45 -29 46 -28 1 1 -2 29 -8
62 -7 49 -16 67 -46 98 -20 20 -39 37 -42 37 -3 0 -3 -31 0 -69z"/>
<path d="M4177 2683 c-13 -74 -11 -77 58 -111 l65 -32 0 71 c0 70 0 70 -33 84
-18 7 -45 17 -59 20 -23 6 -26 3 -31 -32z"/>
<path d="M4340 2590 l0 -70 53 -27 c28 -15 55 -29 60 -31 4 -2 7 30 7 71 l0
74 -49 26 c-27 15 -54 27 -60 27 -7 0 -11 -25 -11 -70z"/>
<path d="M4039 2613 c5 -10 28 -36 50 -58 l41 -39 0 29 c0 26 -8 34 -51 58
-40 22 -48 24 -40 10z"/>
<path d="M2089 2585 c-6 -84 4 -137 25 -129 33 12 34 48 6 109 l-28 60 -3 -40z"/>
<path d="M2225 2561 c-37 -78 -31 -95 33 -87 86 13 84 9 44 81 -21 35 -40 65
-43 65 -3 0 -18 -27 -34 -59z"/>
<path d="M2442 2565 c-17 -30 -29 -55 -28 -55 17 0 96 34 96 41 0 12 -29 69
-35 69 -2 0 -17 -25 -33 -55z"/>
<path d="M4649 2564 c2 -37 9 -49 42 -75 l39 -31 -11 29 c-12 34 -56 110 -67
117 -4 2 -5 -16 -3 -40z"/>
<path d="M4506 2523 c-12 -86 -10 -89 54 -133 l60 -41 0 67 c0 63 -2 68 -36
100 -62 59 -70 60 -78 7z"/>
<path d="M4170 2507 c0 -32 6 -49 23 -64 33 -29 88 -66 92 -61 2 2 5 28 7 58
l3 55 -55 27 c-30 15 -58 27 -62 27 -5 1 -8 -18 -8 -42z"/>
<path d="M2676 2473 c-20 -26 -36 -54 -36 -61 0 -8 17 -43 37 -80 l37 -65 38
44 c21 24 50 61 65 82 l27 38 -30 24 c-16 13 -46 33 -66 45 l-37 21 -35 -48z"/>
<path d="M4340 2407 l0 -65 51 -32 c28 -17 52 -30 54 -28 1 2 5 30 9 64 l7 60
-53 30 c-29 16 -56 31 -60 32 -5 2 -8 -26 -8 -61z"/>
<path d="M4660 2393 l0 -71 51 -37 52 -37 -6 63 c-5 57 -9 66 -51 108 l-46 46
0 -72z"/>
<path d="M2508 2426 c-31 -12 -59 -24 -63 -27 -6 -7 35 -99 44 -98 12 1 91
108 91 123 0 24 -11 24 -72 2z"/>
<path d="M2815 2323 c-78 -100 -75 -94 -59 -123 l13 -25 86 90 87 90 -27 22
c-14 13 -29 23 -33 23 -4 0 -34 -35 -67 -77z"/>
<path d="M2353 2378 c-17 -4 -42 -22 -54 -39 -24 -34 -21 -57 22 -156 l20 -46
49 48 c28 27 53 57 56 67 5 15 -36 113 -54 129 -4 3 -21 2 -39 -3z"/>
<path d="M4496 2333 c-10 -77 -9 -80 54 -123 l60 -41 0 68 -1 68 -53 37 -53
37 -7 -46z"/>
<path d="M2565 2323 c-21 -26 -43 -53 -48 -60 -11 -15 43 -154 57 -150 6 2 32
29 60 61 l50 57 -33 62 c-19 34 -37 66 -41 70 -4 4 -24 -14 -45 -40z"/>
<path d="M2124 2335 c-3 -8 0 -42 8 -76 l13 -61 42 58 c34 45 40 61 32 75 -12
24 -87 27 -95 4z"/>
<path d="M4800 2298 c0 -53 11 -96 25 -102 7 -2 24 8 39 23 l26 27 -45 44 -45
44 0 -36z"/>
<path d="M2885 2239 c-44 -45 -173 -172 -286 -283 -113 -110 -229 -233 -258
-273 -105 -145 -190 -199 -383 -241 -65 -14 -118 -29 -118 -32 0 -3 21 -17 46
-32 33 -21 51 -41 69 -80 14 -29 25 -65 25 -80 0 -36 5 -35 157 6 200 54 225
81 390 434 51 108 268 302 338 302 78 0 100 -49 135 -300 11 -85 23 -170 26
-187 4 -27 10 -33 29 -33 35 0 38 12 14 67 -31 72 -59 200 -59 268 0 33 9 114
20 180 22 133 26 239 9 282 -10 27 -57 83 -68 83 -3 0 -42 -37 -86 -81z"/>
<path d="M4330 2283 c0 -8 76 -112 101 -137 5 -6 9 8 9 37 0 44 -3 48 -41 72
-50 32 -69 40 -69 28z"/>
<path d="M2057 2238 c-35 -94 -47 -171 -29 -182 5 -3 25 18 46 45 l37 50 -12
57 c-7 31 -15 61 -19 65 -4 4 -14 -11 -23 -35z"/>
<path d="M4655 2205 c-7 -60 -6 -66 16 -85 30 -24 31 -24 63 1 42 33 35 68
-23 111 l-49 37 -7 -64z"/>
<path d="M2209 2213 c-19 -26 -38 -54 -43 -61 -8 -13 22 -163 33 -161 3 1 29
27 57 58 l51 56 -32 78 -32 79 -34 -49z"/>
<path d="M2418 2153 c-32 -32 -58 -61 -58 -65 0 -3 14 -37 30 -74 l31 -68 54
54 c32 32 55 63 55 75 -1 11 -13 46 -28 78 l-27 58 -57 -58z"/>
<path d="M5030 2196 c0 -16 68 -62 77 -53 7 8 -52 67 -66 67 -6 0 -11 -6 -11
-14z"/>
<path d="M4486 2184 c-16 -41 -6 -88 25 -120 32 -34 53 -35 77 -6 27 34 14 65
-42 104 -45 31 -55 35 -60 22z"/>
<path d="M2646 2124 c-37 -42 -56 -70 -52 -80 5 -12 21 -2 71 43 67 60 74 73
52 91 -10 8 -27 -4 -71 -54z"/>
<path d="M4974 2132 c-40 -33 -37 -49 19 -116 28 -35 57 -71 62 -80 8 -14 16
-5 47 58 l37 75 -67 38 c-37 21 -69 39 -72 40 -3 2 -14 -5 -26 -15z"/>
<path d="M2078 2035 l-38 -53 17 -73 16 -72 29 34 c61 72 60 69 41 148 -9 39
-19 71 -22 71 -3 -1 -23 -25 -43 -55z"/>
<path d="M2266 1999 c-31 -34 -56 -67 -56 -73 1 -22 36 -151 42 -151 3 0 35
32 70 70 l65 70 -32 73 -32 73 -57 -62z"/>
<path d="M4848 2032 c-21 -15 -35 -33 -33 -41 7 -17 48 -70 56 -70 4 -1 10 20
14 47 3 26 9 57 12 70 7 28 -3 27 -49 -6z"/>
<path d="M5130 1955 c-34 -74 -38 -89 -28 -116 9 -28 11 -28 24 -12 19 25 74
168 74 193 0 46 -32 17 -70 -65z"/>
<path d="M5239 1948 c-28 -86 -72 -168 -163 -301 -72 -104 -83 -159 -59 -307
10 -58 17 -141 18 -186 0 -74 -3 -85 -32 -132 l-32 -52 24 0 c54 0 55 2 55
144 0 231 29 394 89 515 27 53 93 142 111 149 5 2 11 -16 15 -40 7 -42 151
-338 165 -338 4 0 15 9 25 20 17 19 16 21 -34 81 -29 34 -61 80 -72 101 -34
67 -59 184 -59 282 -1 50 -6 103 -13 119 -12 27 -13 25 -38 -55z"/>
<path d="M2495 1960 c-39 -40 -56 -63 -49 -70 14 -14 126 100 116 117 -6 9
-26 -6 -67 -47z"/>
<path d="M4922 1941 c-11 -68 -11 -69 23 -136 l34 -68 31 69 c31 68 31 70 14
99 -20 35 -76 105 -84 105 -3 0 -11 -31 -18 -69z"/>
<path d="M4753 1900 l-20 -71 39 -49 c22 -28 43 -50 47 -50 4 0 15 29 24 65
l18 66 -38 47 c-20 26 -40 50 -43 54 -3 5 -15 -24 -27 -62z"/>
<path d="M4683 1938 c-28 -14 -29 -20 -3 -43 19 -17 20 -17 30 9 18 48 13 54
-27 34z"/>
<path d="M1986 1906 c-16 -26 -20 -93 -7 -150 l6 -29 27 34 26 35 -15 65 c-8
35 -16 65 -17 67 -2 1 -11 -9 -20 -22z"/>
<path d="M4591 1845 c-12 -54 -12 -56 16 -90 15 -18 31 -34 35 -34 6 -1 38 84
38 100 0 11 -60 79 -69 79 -4 0 -13 -25 -20 -55z"/>
<path d="M2128 1837 c-44 -54 -45 -58 -37 -99 4 -24 8 -61 9 -83 l0 -40 56 56
56 56 -19 83 -19 83 -46 -56z"/>
<path d="M2333 1795 c-37 -42 -68 -80 -67 -85 1 -6 2 -20 3 -32 1 -19 6 -15
33 23 17 24 51 65 75 91 27 30 41 53 37 62 -3 9 -8 16 -9 16 -2 0 -34 -34 -72
-75z"/>
<path d="M4873 1744 l-22 -66 26 -39 c14 -21 29 -39 32 -39 4 0 15 16 25 36
16 36 16 38 -9 105 -15 38 -28 69 -29 69 -1 0 -12 -30 -23 -66z"/>
<path d="M5032 1747 c-42 -88 -39 -115 6 -53 26 37 32 54 30 83 l-4 38 -32
-68z"/>
<path d="M4708 1764 c-3 -10 -13 -35 -21 -55 -16 -35 -15 -36 19 -85 19 -27
39 -51 45 -52 5 -2 19 17 30 43 24 54 21 63 -35 129 -29 35 -33 37 -38 20z"/>
<path d="M2012 1693 c-29 -37 -32 -47 -32 -112 0 -39 4 -71 8 -71 4 0 22 15
40 33 28 29 32 39 31 87 -1 30 -4 66 -8 79 -6 24 -7 24 -39 -16z"/>
<path d="M4574 1693 c3 -21 6 -48 6 -60 0 -32 15 -29 30 6 10 26 9 33 -11 60
-13 17 -25 31 -27 31 -3 0 -2 -17 2 -37z"/>
<path d="M1927 1671 c-4 -17 -3 -21 5 -13 5 5 8 16 6 23 -3 8 -7 3 -11 -10z"/>
<path d="M2167 1622 c-31 -31 -57 -66 -57 -76 0 -16 3 -16 38 5 67 40 93 70
84 102 l-7 27 -58 -58z"/>
<path d="M4626 1575 l-26 -44 32 -46 c17 -25 34 -45 37 -45 4 0 17 20 30 44
l23 45 -33 45 c-18 25 -33 46 -35 46 -1 0 -14 -20 -28 -45z"/>
<path d="M4806 1570 l-25 -50 32 -46 32 -46 22 52 23 51 -20 39 c-11 21 -24
41 -29 45 -5 3 -21 -17 -35 -45z"/>
<path d="M4952 1575 c-14 -31 -16 -63 -3 -49 9 10 25 74 18 74 -2 0 -9 -11
-15 -25z"/>
<path d="M1903 1546 c-43 -64 -43 -80 -1 -72 17 3 33 8 35 10 2 2 3 28 1 57
l-3 54 -32 -49z"/>
<path d="M4720 1434 c-22 -45 -22 -46 -4 -87 10 -23 21 -46 24 -50 4 -4 24 13
44 38 l38 46 -32 49 c-18 28 -36 50 -40 50 -5 0 -18 -21 -30 -46z"/>
<path d="M4893 1429 l-21 -54 32 -57 c24 -44 33 -53 40 -41 15 27 8 131 -12
169 l-19 36 -20 -53z"/>
<path d="M4606 1368 c3 -46 8 -84 9 -86 2 -2 10 20 18 48 14 49 14 54 -5 86
-11 19 -22 34 -25 34 -2 0 -1 -37 3 -82z"/>
<path d="M1770 1329 c-19 -17 -79 -63 -133 -101 -99 -71 -117 -94 -117 -149 0
-37 6 -37 122 0 51 16 140 44 197 61 l103 32 -6 45 c-7 56 -39 109 -76 128
-40 21 -50 19 -90 -16z"/>
<path d="M4807 1295 c-21 -26 -37 -52 -37 -58 0 -18 33 -117 40 -117 3 0 27
21 52 48 l46 47 -32 64 -33 64 -36 -48z"/>
<path d="M4660 1268 c-9 -43 -9 -59 2 -85 l14 -33 21 44 c21 42 21 43 3 84
-11 23 -21 42 -24 42 -2 0 -10 -24 -16 -52z"/>
<path d="M4966 1221 c-4 -5 0 -25 8 -43 l15 -33 -6 40 c-7 46 -9 50 -17 36z"/>
<path d="M4717 1132 c-18 -50 -22 -107 -9 -116 4 -2 20 11 35 30 25 31 27 37
17 71 -17 64 -25 67 -43 15z"/>
<path d="M4872 1117 l-53 -53 12 -52 c12 -50 13 -52 47 -52 20 0 32 3 29 7 -4
3 4 20 16 37 47 61 49 70 27 120 -10 25 -21 46 -22 46 -2 0 -27 -24 -56 -53z"/>
<path d="M4622 1115 c1 -52 12 -85 28 -85 11 0 3 48 -16 100 l-13 35 1 -50z"/>
<path d="M4560 1013 c-7 -16 -18 -71 -26 -123 -11 -76 -22 -112 -59 -186 -50
-98 -50 -108 -6 -148 29 -26 93 -23 145 8 115 68 436 331 436 357 0 6 -43 7
-107 3 -125 -8 -204 5 -277 44 -27 15 -55 37 -63 49 -20 30 -27 29 -43 -4z"/>
<path d="M4761 1001 c-8 -15 -7 -20 5 -25 23 -9 24 -8 24 19 0 30 -15 33 -29
6z"/>
</g>
</svg>
